<svg xmlns="http://www.w3.org/2000/svg" class="hms-icons-file"><symbol id="icon-applications" viewBox="0 0 20 20"><path fill-rule="evenodd" clip-rule="evenodd" d="M17.45 1.263l.8.8c.8.8.8 2 0 2.7l-2.8 2.8-4.8 4.8c0 .1-.2.2-.3.2l-3.2.8h-.2c-.2 0-.4 0-.5-.2-.2-.2-.3-.4-.2-.7l.8-3.2c0-.1.1-.2.2-.3l4.8-4.9 2.7-2.8c.8-.7 2-.7 2.7 0zm-9.5 10.3l1.8-.4 4-4.2-1.3-1.3-4.1 4.1-.4 1.8zm7-5.6l2.3-2.3c.1-.1.1-.3-.1-.5l-.8-.8c-.1-.1-.3-.1-.5 0l-2.2 2.3 1.3 1.3zm-.2 5.8c0-.5.4-.8.8-.8s.7.3.7.7v5.7c0 1.1-.9 1.9-1.9 1.9H3.05c-1.1 0-1.9-.9-1.9-1.9v-11.3c0-1.1.9-1.9 1.9-1.9h5.7c.4 0 .8.2.8.7 0 .5-.4.8-.8.8h-5.7c-.2 0-.4.2-.4.4v11.3c0 .2.2.4.4.4h11.3c.2 0 .4-.2.4-.4v-5.6z"/></symbol><symbol id="icon-check" viewBox="0 0 19 19"><path d="M14.498 5.005a.75.75 0 0 1 .123 1.053L8.7 13.551a1.542 1.542 0 0 1-2.499-.073l-1.847-2.621a.749.749 0 1 1 1.226-.864l1.851 2.627.01.015a.04.04 0 0 0 .034.019.043.043 0 0 0 .035-.017l.009-.011 5.926-7.497a.749.749 0 0 1 1.053-.124zM.25 2.5A2.25 2.25 0 0 1 2.5.25h14a2.25 2.25 0 0 1 2.25 2.25v14a2.25 2.25 0 0 1-2.25 2.25h-14A2.25 2.25 0 0 1 .25 16.5v-14zm2.25-.75a.75.75 0 0 0-.75.75v14c0 .414.336.75.75.75h14a.75.75 0 0 0 .75-.75v-14a.75.75 0 0 0-.75-.75h-14z"/></symbol><symbol id="icon-clock" viewBox="0 0 19 19"><path d="M.25 9.5A9.25 9.25 0 0 1 9.5.25a9.25 9.25 0 0 1 9.25 9.25 9.25 9.25 0 0 1-9.25 9.25A9.25 9.25 0 0 1 .25 9.5zM9.5 1.75a7.75 7.75 0 1 0 0 15.5 7.75 7.75 0 0 0 0-15.5zM7.535 9.5a1.964 1.964 0 1 1 3.927 0 1.964 1.964 0 0 1-3.927 0zm1.964-.464a.464.464 0 1 0 0 .929.464.464 0 0 0 0-.929zm.001-5.75a.75.75 0 0 1 .75.75v4.25a.75.75 0 0 1-1.5 0v-4.25a.75.75 0 0 1 .75-.75zm.329 6.543a.75.75 0 0 1 1.061 0l2.177 2.177a.75.75 0 1 1-1.061 1.061L9.829 10.89a.75.75 0 0 1 0-1.061z"/></symbol><symbol id="icon-close-thin" viewBox="0 0 20 21"><path d="M1.666 18.833L18.333 2.167M18.333 18.833L1.666 2.167" stroke="currentColor" stroke-width="1.5" stroke-linecap="round" stroke-linejoin="round"/></symbol><symbol id="icon-close" viewBox="0 0 20 20"><path d="M14.95 6.46L11.41 10l3.54 3.54-1.41 1.41L10 11.42l-3.53 3.53-1.42-1.42L8.58 10 5.05 6.47l1.42-1.42L10 8.58l3.54-3.53z"/></symbol><symbol id="icon-contact" viewBox="0 0 19 14"><path d="M.25 2.5A2.25 2.25 0 0 1 2.5.25h14a2.25 2.25 0 0 1 2.25 2.25v8.333a2.25 2.25 0 0 1-2.25 2.25h-14a2.25 2.25 0 0 1-2.25-2.25V2.5zm2.25-.75a.75.75 0 0 0-.75.75v8.333c0 .414.336.75.75.75h14a.75.75 0 0 0 .75-.75V2.5a.75.75 0 0 0-.75-.75h-14zm.584 6.05a.75.75 0 0 1 .75-.75h2.833a.75.75 0 0 1 0 1.5H3.834a.75.75 0 0 1-.75-.75zm0 2.267a.75.75 0 0 1 .75-.75h6.233a.75.75 0 0 1 0 1.5H3.834a.75.75 0 0 1-.75-.75zm8.5-6.05a1.5 1.5 0 0 1 1.5-1.5h1.9a1.5 1.5 0 0 1 1.5 1.5v1.9a1.5 1.5 0 0 1-1.5 1.5h-1.9a1.5 1.5 0 0 1-1.5-1.5v-1.9zm3.4 0h-1.9v1.9h1.9v-1.9z"/></symbol><symbol id="icon-copy"><path d="M1.476 1.034a1.884 1.884 0 0 0-.836.553c-.248.266-.44.631-.497.948-.026.14-.038 1.489-.038 4.151 0 3.819.002 3.951.069 4.214.16.623.629 1.141 1.248 1.377.232.089.271.092 1.136.105.983.015 1.116-.002 1.304-.167.253-.222.27-.831.03-1.096-.151-.168-.223-.18-1.133-.199-.804-.016-.871-.023-.963-.09a.656.656 0 0 1-.16-.192c-.057-.113-.061-.375-.061-3.981 0-4.236-.014-3.961.211-4.15l.109-.092h5.792c6.381 0 5.906-.017 6.074.218l.082.115.017 1.487c.017 1.42.021 1.493.089 1.61.113.192.327.292.629.292.323 0 .519-.099.647-.327l.088-.157V4.13c0-1.475-.003-1.53-.078-1.767-.21-.664-.756-1.198-1.394-1.364-.181-.048-.924-.054-6.157-.053L1.733.947l-.257.087M6.86 7.229a2.268 2.268 0 0 0-1.085.607c-.317.314-.497.617-.595 1.002-.068.265-.07.39-.07 4.041 0 2.521.012 3.837.037 3.976.021.114.099.334.173.488a2.274 2.274 0 0 0 1.47 1.231c.216.06.513.064 5.915.064 5.328 0 5.702-.004 5.915-.062a2.305 2.305 0 0 0 1.467-1.205c.219-.441.212-.288.212-4.459.001-3.671-.001-3.81-.068-4.071a2.034 2.034 0 0 0-.515-.93 2.121 2.121 0 0 0-.919-.611l-.299-.107-5.705-.007c-4.786-.005-5.742.002-5.933.043m11.456 1.454a.81.81 0 0 1 .269.159c.263.237.248-.019.237 4.128l-.009 3.713-.088.129a1.043 1.043 0 0 1-.225.225l-.137.096H7.047l-.129-.088a1.032 1.032 0 0 1-.225-.227l-.095-.14-.01-3.71c-.011-4.164-.027-3.896.247-4.131a.905.905 0 0 1 .251-.155c.159-.046 11.063-.046 11.23.001" fill-rule="evenodd"/></symbol><symbol id="icon-cube" viewBox="0 0 20 20"><path fill-rule="evenodd" clip-rule="evenodd" d="M10.57.071a.75.75 0 0 0-.64 0L1.44 4.067A.75.75 0 0 0 1 4.75v9.8a.75.75 0 0 0 .433.68l8.997 4.198c.211.1.459.096.669-.014l8-4.2a.75.75 0 0 0 .401-.664V4.773a.75.75 0 0 0-.43-.702l-8.5-4zm6.497 4.716L10.25 1.579 3.518 4.747l7.212 3.366 6.337-3.326zM11.5 17.509V9.403L18 5.991v8.106l-6.5 3.412zm-9-11.581l7.5 3.5v8.144l-7.5-3.5V5.928z"/></symbol><symbol id="icon-dashboard" viewBox="0 0 20 20"><path fill-rule="evenodd" clip-rule="evenodd" d="M2.502.665a1.75 1.75 0 0 0-1.75 1.75v6.686c0 .966.783 1.75 1.75 1.75h5.367a1.75 1.75 0 0 0 1.75-1.75V2.415a1.75 1.75 0 0 0-1.75-1.75H2.502zm-.25 1.75a.25.25 0 0 1 .25-.25h5.367a.25.25 0 0 1 .25.25v6.686a.25.25 0 0 1-.25.25H2.502a.25.25 0 0 1-.25-.25V2.415zm15.246 16.92a1.75 1.75 0 0 0 1.75-1.75V9.95a1.75 1.75 0 0 0-1.75-1.75h-5.367a1.75 1.75 0 0 0-1.75 1.75v7.634c0 .966.784 1.75 1.75 1.75h5.367zm.25-1.75a.25.25 0 0 1-.25.25h-5.367a.25.25 0 0 1-.25-.25V9.95a.25.25 0 0 1 .25-.25h5.367a.25.25 0 0 1 .25.25v7.634zm-16.996-3.1c0-.967.783-1.75 1.75-1.75h5.367c.966 0 1.75.783 1.75 1.75v3.1a1.75 1.75 0 0 1-1.75 1.75H2.502a1.75 1.75 0 0 1-1.75-1.75v-3.1zm1.75-.25a.25.25 0 0 0-.25.25v3.1c0 .138.112.25.25.25h5.367a.25.25 0 0 0 .25-.25v-3.1a.25.25 0 0 0-.25-.25H2.502zm14.996-6.97a1.75 1.75 0 0 0 1.75-1.75v-3.1a1.75 1.75 0 0 0-1.75-1.75h-5.367a1.75 1.75 0 0 0-1.75 1.75v3.1c0 .967.784 1.75 1.75 1.75h5.367zm.25-1.75a.25.25 0 0 1-.25.25h-5.367a.25.25 0 0 1-.25-.25v-3.1a.25.25 0 0 1 .25-.25h5.367a.25.25 0 0 1 .25.25v3.1z"/></symbol><symbol id="icon-delete"><path d="M7.85.534a2.047 2.047 0 0 0-1.62 1.364c-.049.154-.075.348-.088.659l-.018.44-2.554.01c-2.772.01-2.655.002-2.861.201-.134.129-.184.276-.184.542s.05.413.184.542c.174.168.253.183 1.023.205l.716.02.555 6.638c.306 3.651.575 6.719.598 6.817.061.258.149.446.316.68.245.344.577.587 1.007.74l.259.091h9.634l.259-.091c.676-.24 1.178-.777 1.328-1.422.02-.084.286-3.146.592-6.803l.555-6.65.716-.02c.771-.022.85-.037 1.024-.205.134-.129.184-.276.184-.542s-.05-.413-.184-.542c-.206-.199-.089-.191-2.861-.201l-2.554-.01-.018-.44c-.022-.517-.091-.776-.288-1.081A2.04 2.04 0 0 0 12.483.61l-.266-.093-2.084-.005C8.988.509 7.96.519 7.85.534m4.289 1.524c.18.107.241.253.256.616l.013.326H7.592l.013-.327c.015-.36.068-.49.249-.609C7.946 2.003 8.039 2 9.995 2c1.888 0 2.052.004 2.144.058m3.926 2.5c0 .032-.245 2.991-.544 6.575-.433 5.195-.554 6.538-.598 6.622a.538.538 0 0 1-.168.175l-.113.07H5.358l-.113-.07a.531.531 0 0 1-.167-.174c-.043-.082-.169-1.481-.598-6.622-.3-3.584-.545-6.544-.546-6.576-.001-.055.31-.058 6.066-.058s6.067.003 6.065.058M7.783 7.45a.567.567 0 0 0-.347.373c-.051.181-.049 6.678.001 6.859a.598.598 0 0 0 .381.381c.202.056.513.044.667-.026.151-.068.302-.231.34-.365.033-.116.033-6.728 0-6.844-.038-.134-.189-.297-.34-.365-.164-.075-.51-.081-.702-.013m3.732.011c-.152.071-.303.234-.34.367-.033.117-.032 6.729 0 6.846.04.142.213.316.376.378.11.042.213.053.395.041.288-.018.443-.098.561-.286l.076-.124V7.817l-.076-.124c-.123-.197-.274-.27-.588-.284-.212-.009-.297.002-.404.052" fill-rule="evenodd"/></symbol><symbol id="icon-down" viewBox="0 0 20 20"><path d="M5 6l5 5 5-5 2 1-7 7-7-7 2-1z"/></symbol><symbol id="icon-download" viewBox="0 0 22 20"><path fill-rule="evenodd" clip-rule="evenodd" d="M7.75 2.083c0-.76.615-1.375 1.374-1.375h3.75c.76 0 1.375.616 1.375 1.375v4.875h2.375a.75.75 0 0 1 .53 1.28l-5.624 5.625a.75.75 0 0 1-1.061 0L4.845 8.238a.75.75 0 0 1 .53-1.28h2.374V2.083zm1.5.125v5.5a.75.75 0 0 1-.75.75H7.184L11 12.272l3.814-3.814H13.5a.75.75 0 0 1-.75-.75v-5.5h-3.5zM1.624 13.833a.75.75 0 0 1 .75.75v2.5a.5.5 0 0 0 .5.5h16.25a.5.5 0 0 0 .5-.5v-2.5a.75.75 0 0 1 1.5 0v2.5a2 2 0 0 1-2 2H2.875a2 2 0 0 1-2-2v-2.5a.75.75 0 0 1 .75-.75z"/></symbol><symbol id="icon-drag"><path d="M2.683 3.658c-.6.038-1.208.348-1.567.799a2.12 2.12 0 0 0-.474 1.476c.027.595.221 1.028.65 1.457.193.193.306.273.55.39.395.188.597.235 1.008.231a2.116 2.116 0 0 0 1.502-.635c.254-.252.413-.508.536-.86.083-.237.094-.312.094-.683 0-.37-.011-.446-.094-.683a2.191 2.191 0 0 0-1.344-1.372 2.568 2.568 0 0 0-.861-.12m7.184 0A2.198 2.198 0 0 0 7.881 5.3a2.32 2.32 0 0 0-.057.533c0 .619.197 1.09.641 1.535.445.444.915.641 1.535.642.608.001 1.099-.203 1.536-.64.444-.444.645-.923.645-1.537 0-.623-.201-1.094-.661-1.55a1.82 1.82 0 0 0-.52-.39 2.255 2.255 0 0 0-1.133-.235m7.077.013c-.738.066-1.416.555-1.737 1.251a2.112 2.112 0 0 0 .024 1.861c.38.766 1.09 1.22 1.919 1.228.413.004.613-.042 1.014-.234a2.136 2.136 0 0 0 1.203-1.944 2.1 2.1 0 0 0-.634-1.533c-.481-.483-1.076-.693-1.789-.629M2.683 11.992a2.234 2.234 0 0 0-1.207.452 2.166 2.166 0 0 0-.842 1.706c.001.875.465 1.612 1.249 1.983.357.169.57.215.967.211a2.11 2.11 0 0 0 1.502-.634 2.13 2.13 0 0 0 .536-.86c.081-.233.093-.317.094-.667.001-.327-.013-.445-.076-.65a2.197 2.197 0 0 0-2.223-1.541m7.167-.001c-.921.055-1.729.729-1.969 1.642a2.322 2.322 0 0 0-.057.534c0 .618.197 1.09.641 1.534.445.445.917.642 1.535.642.607 0 1.088-.198 1.52-.626.46-.456.661-.927.661-1.55 0-.624-.201-1.095-.661-1.551a2.108 2.108 0 0 0-1.67-.625m7.094.012c-1.483.143-2.379 1.771-1.713 3.114.382.77 1.103 1.224 1.952 1.228.382.002.59-.048.981-.235a2.135 2.135 0 0 0 1.203-1.943c0-.598-.212-1.109-.637-1.538-.468-.473-1.094-.692-1.786-.626" fill-rule="evenodd"/></symbol><symbol id="icon-end" viewBox="0 0 20 20"><path fill-rule="evenodd" clip-rule="evenodd" d="M4.95 0C3.888 0 3 .847 3 1.925V3.78C3 6.347 4.482 8.56 6.642 9.663A6.75 6.75 0 0 0 3 15.656v1.894a1.95 1.95 0 0 0 1.95 1.95h9.6c.63 0 1.19-.298 1.546-.762.003 0 .005-.002.008-.003a.75.75 0 0 0 .37-.86c.017-.106.026-.215.026-.325v-1.894a6.75 6.75 0 0 0-3.642-5.993C15.018 8.561 16.5 6.347 16.5 3.78V1.925C16.5.847 15.612 0 14.55 0h-9.6zM15 15.728v-.072a5.25 5.25 0 0 0-5.236-5.25h-.028a5.25 5.25 0 0 0-5.236 5.25v.414c1.323-1.588 3.218-2.843 5.4-2.843 2.021 0 3.798 1.078 5.1 2.501zM9.764 8.906C12.672 8.9 15 6.592 15 3.78V1.925a.438.438 0 0 0-.45-.425h-9.6a.438.438 0 0 0-.45.425V3.78c0 2.812 2.328 5.12 5.236 5.126h.028z"/></symbol><symbol id="icon-filter" viewBox="0 0 20 20"><path fill-rule="evenodd" clip-rule="evenodd" d="M9.166 15.833a.834.834 0 1 1 0-1.667.834.834 0 0 1 0 1.667zm8.333-1.666h-5.987A2.496 2.496 0 0 0 9.166 12.5c-1.085 0-2 .7-2.346 1.667H2.5a.833.833 0 1 0 0 1.666h4.32A2.496 2.496 0 0 0 9.166 17.5c1.085 0 2-.7 2.346-1.667h5.987a.833.833 0 1 0 0-1.666zm-1.666-3.334a.834.834 0 1 1 0-1.667.834.834 0 0 1 0 1.667zm0-3.333c-1.085 0-2.001.7-2.346 1.667H2.499a.833.833 0 1 0 0 1.666h10.988a2.496 2.496 0 0 0 2.346 1.667c1.378 0 2.5-1.122 2.5-2.5s-1.122-2.5-2.5-2.5zm-10-3.333a.834.834 0 1 1 0 1.667.834.834 0 0 1 0-1.667zM2.499 5.833h.988A2.496 2.496 0 0 0 5.833 7.5c1.085 0 2-.7 2.346-1.667h9.32a.833.833 0 1 0 0-1.666H8.18A2.496 2.496 0 0 0 5.833 2.5c-1.085 0-2.001.7-2.346 1.667h-.988a.833.833 0 1 0 0 1.666z"/></symbol><symbol id="icon-hms" viewBox="0 0 16 17"><path fill-rule="evenodd" clip-rule="evenodd" d="M0 2.5a2 2 0 0 1 2-2h12a2 2 0 0 1 2 2v12a2 2 0 0 1-2 2H2a2 2 0 0 1-2-2v-12zm4.998 1a1.5 1.5 0 0 1-1.25 1.48v2.04a1.501 1.501 0 0 1 1.23 1.23H6.52a1.5 1.5 0 0 1 2.958 0h1.544a1.501 1.501 0 0 1 1.229-1.23V4.98a1.5 1.5 0 1 1 .5 0v2.04a1.5 1.5 0 0 1 0 2.96v2.157a1.5 1.5 0 1 1-.5 0V9.979a1.501 1.501 0 0 1-1.23-1.229H9.48a1.5 1.5 0 0 1-2.958 0H4.977a1.501 1.501 0 0 1-1.229 1.23v2.157a1.5 1.5 0 1 1-.5 0V9.979a1.5 1.5 0 0 1 0-2.958V4.979A1.5 1.5 0 1 1 4.998 3.5z"/></symbol><symbol id="icon-list-forms" viewBox="0 0 20 20"><path d="M8.684 5.283h6.8M8.684 9.683h6.8M8.684 14.183h6.8M5.283 5a.283.283 0 1 0 0 .567.283.283 0 0 0 0-.567M5.283 9.4a.283.283 0 1 0 0 .567.283.283 0 0 0 0-.567M5.283 13.9a.283.283 0 1 0 0 .567.283.283 0 0 0 0-.567" stroke="#fff" stroke-width="1.5" stroke-linecap="round" stroke-linejoin="round"/></symbol><symbol id="icon-list" viewBox="0 0 20 20"><path d="M.25 3.7A2.25 2.25 0 0 1 2.5 1.45h15a2.25 2.25 0 0 1 2.25 2.25v13.8a2.25 2.25 0 0 1-2.25 2.25h-15A2.25 2.25 0 0 1 .25 17.5V3.7zm2.25-.75a.75.75 0 0 0-.75.75v13.8c0 .414.336.75.75.75h15a.75.75 0 0 0 .75-.75V3.7a.75.75 0 0 0-.75-.75h-15zM4.6.25a.75.75 0 0 1 .75.75v2.4a.75.75 0 0 1-1.5 0V1A.75.75 0 0 1 4.6.25zm10.8 0a.75.75 0 0 1 .75.75v2.4a.75.75 0 0 1-1.5 0V1a.75.75 0 0 1 .75-.75zM9.85 14.8a.75.75 0 0 1 .75-.75h3.6a.75.75 0 0 1 0 1.5h-3.6a.75.75 0 0 1-.75-.75zm0-6a.75.75 0 0 1 .75-.75h3.6a.75.75 0 0 1 0 1.5h-3.6a.75.75 0 0 1-.75-.75zm-1.08 3.24a.75.75 0 0 1 .15 1.05L6.4 16.45a.748.748 0 0 1-1.13.08l-1.8-1.8a.75.75 0 1 1 1.061-1.061l1.189 1.189 2-2.668a.75.75 0 0 1 1.05-.15zm0-6.24a.75.75 0 0 1 .15 1.05L6.4 10.21a.748.748 0 0 1-1.13.08l-1.8-1.8a.75.75 0 1 1 1.061-1.061L5.72 8.618l2-2.668a.75.75 0 0 1 1.05-.15z"/></symbol><symbol id="icon-log" viewBox="0 0 19 18"><path fill-rule="evenodd" clip-rule="evenodd" d="M12.254.53a8.684 8.684 0 0 0-9.848 4.314.75.75 0 0 0 1.323.707 7.184 7.184 0 1 1-.123 6.529.75.75 0 0 0-1.349.656A8.684 8.684 0 1 0 12.254.531zM9.538 5.57a.75.75 0 0 1 1.06 0l2.834 2.834a.75.75 0 0 1 0 1.061L10.6 12.3a.75.75 0 0 1-1.061-1.06l1.553-1.554H1a.75.75 0 1 1 0-1.5h10.091L9.538 6.63a.75.75 0 0 1 0-1.06z"/></symbol><symbol id="icon-materials" viewBox="0 0 20 20"><path fill-rule="evenodd" clip-rule="evenodd" d="M.75 3A2.25 2.25 0 0 1 3 .75h10.034A2.25 2.25 0 0 1 15.284 3v10.033a2.25 2.25 0 0 1-2.25 2.25H3a2.25 2.25 0 0 1-2.25-2.25V3zm13.034 0v7.383H2.25V3A.75.75 0 0 1 3 2.25h10.034a.75.75 0 0 1 .75.75zm0 8.883H2.25v1.15c0 .415.336.75.75.75h10.034a.75.75 0 0 0 .75-.75v-1.15zm3.31-7.865a.75.75 0 0 0-.28 1.474l.289.055c.431.082.714.499.632.93l-2.028 10.627a.796.796 0 0 1-.931.631l-7.952-1.517a.75.75 0 0 0-.28 1.474l7.95 1.517a2.296 2.296 0 0 0 2.686-1.824l2.028-10.626a2.296 2.296 0 0 0-1.824-2.686l-.29-.055z"/></symbol><symbol id="icon-menu-vertical" viewBox="0 0 6 23"><path fill-rule="evenodd" clip-rule="evenodd" d="M2.987 22.753a2.625 2.625 0 1 0 0-5.25 2.625 2.625 0 0 0 0 5.25zM2.987 5.503a2.625 2.625 0 1 0 0-5.25 2.625 2.625 0 0 0 0 5.25zM2.987 14.128a2.625 2.625 0 1 0 0-5.25 2.625 2.625 0 0 0 0 5.25z"/></symbol><symbol id="icon-menu" viewBox="0 0 20 20"><path d="M3 15h14v-2H3v2zM3 5v2h14V5H3zm0 6h14V9H3v2z"/></symbol><symbol id="icon-messages" viewBox="0 0 20 20"><path clip-rule="evenodd" d="M2.633 2.25a.383.383 0 0 0-.383.383v11.334c0 .211.172.383.383.383H4.9a.75.75 0 0 1 .75.75V17l3.333-2.5a.75.75 0 0 1 .45-.15h7.934a.383.383 0 0 0 .383-.383V2.633a.383.383 0 0 0-.383-.383H2.633zM.75 2.633C.75 1.593 1.593.75 2.633.75h14.734c1.04 0 1.883.843 1.883 1.883v11.334c0 1.04-.843 1.883-1.883 1.883H9.683L5.35 19.1a.75.75 0 0 1-1.2-.6v-2.65H2.633A1.883 1.883 0 0 1 .75 13.967V2.633zm6.8 4.25a.75.75 0 0 1 .75-.75h6.8a.75.75 0 0 1 0 1.5H8.3a.75.75 0 0 1-.75-.75zm.75 2.65a.75.75 0 1 0 0 1.5h6.8a.75.75 0 0 0 0-1.5H8.3zm-4.433-2.65a1.033 1.033 0 1 1 2.067 0 1.033 1.033 0 0 1-2.067 0zM4.901 9.25a1.033 1.033 0 1 0 0 2.067 1.033 1.033 0 0 0 0-2.067z"/></symbol><symbol id="icon-migrate" viewBox="0 0 20 20"><path d="M4 6h6V4H2v12.01h8V14H4V6zm2 2h6V5l6 5-6 5v-3H6V8z"/></symbol><symbol id="icon-participant" viewBox="0 0 13 16"><path fill-rule="evenodd" clip-rule="evenodd" d="M2.35 4.088a4.05 4.05 0 1 1 8.1 0 4.05 4.05 0 0 1-8.1 0zm4.05-2.55a2.55 2.55 0 1 0 0 5.1 2.55 2.55 0 0 0 0-5.1zM1.778 14.462h9.244a4.65 4.65 0 0 0-9.244 0zm10.763.633a.755.755 0 0 0 .009-.118 6.15 6.15 0 1 0-12.3 0c0 .04.003.08.01.117a.75.75 0 0 0 .74.867h10.8a.75.75 0 0 0 .74-.867z"/></symbol><symbol id="icon-participants" viewBox="0 0 20 20"><path fill-rule="evenodd" clip-rule="evenodd" d="M10.1 2.25a3.855 3.855 0 1 0 0 7.71 3.855 3.855 0 0 0 0-7.71zM7.744 6.105a2.355 2.355 0 1 1 4.71 0 2.355 2.355 0 0 1-4.71 0zM10.1 11.86a4.35 4.35 0 0 0-4.31 3.764h8.62a4.35 4.35 0 0 0-4.31-3.764zm-5.85 4.35c0 .177.061.34.164.468a.75.75 0 0 0 .686.445h10a.75.75 0 0 0 .684-.443.747.747 0 0 0 .166-.47 5.85 5.85 0 1 0-11.7 0z"/></symbol><symbol id="icon-pencil" viewBox="0 0 20 20"><path d="M18.297 2.103l-.802-.803a1.886 1.886 0 0 0-2.662 0l-2.806 2.803-.007.01-4.8 4.799a.777.777 0 0 0-.196.35l-.801 3.206a.75.75 0 0 0 .909.91l3.205-.802a.757.757 0 0 0 .348-.197l4.808-4.808.002-.003 2.802-2.801a1.885 1.885 0 0 0 0-2.664zm-8.525 9.068l-1.791.447.447-1.791 4.131-4.131 1.343 1.343-4.13 4.132zm7.465-7.466l-2.274 2.273-1.344-1.344 2.275-2.273a.385.385 0 0 1 .542 0l.801.802a.384.384 0 0 1 0 .542zm-.986 7.994v5.666a1.886 1.886 0 0 1-1.884 1.884H3.035a1.885 1.885 0 0 1-1.883-1.884V6.033c0-1.039.845-1.883 1.883-1.883h5.667a.75.75 0 0 1 0 1.5H3.035a.384.384 0 0 0-.383.383v11.333c0 .212.172.384.383.384h11.333a.384.384 0 0 0 .384-.384V11.7a.75.75 0 0 1 1.499-.001z"/></symbol><symbol id="icon-profile" viewBox="0 0 20 20"><path fill-rule="evenodd" clip-rule="evenodd" d="M2.75 3.5c0-.966.784-1.75 1.75-1.75h11c.966 0 1.75.784 1.75 1.75v13a1.75 1.75 0 0 1-1.75 1.75h-11a1.75 1.75 0 0 1-1.75-1.75v-13zm1.75-.25a.25.25 0 0 0-.25.25v13c0 .138.112.25.25.25h.4a5.837 5.837 0 0 1 10.201 0h.399a.25.25 0 0 0 .25-.25v-13a.25.25 0 0 0-.25-.25h-11zm8.78 13.5a4.337 4.337 0 0 0-6.56 0h6.56zM6.51 9.24a3.49 3.49 0 1 1 6.98 0 3.49 3.49 0 0 1-6.98 0zM10 7.25a1.99 1.99 0 1 0 0 3.98 1.99 1.99 0 0 0 0-3.98z"/></symbol><symbol id="icon-project" viewBox="0 0 20 20"><path fill-rule="evenodd" clip-rule="evenodd" d="M17.288 1.883H2.718A1.974 1.974 0 0 0 .75 3.851v12.382c0 1.04.843 1.884 1.883 1.884H17.282a1.974 1.974 0 0 0 1.968-1.968V3.845a1.968 1.968 0 0 0-1.962-1.962zm.462 3.4V3.85a.468.468 0 0 0-.466-.466H2.722a.474.474 0 0 0-.472.472v1.428h15.5zm-15.5 1.5h15.5v9.362a.474.474 0 0 1-.472.472H2.633a.383.383 0 0 1-.383-.384v-9.45zM9.816 11.7a.75.75 0 0 1 .75-.75h3.4a.75.75 0 0 1 0 1.5h-3.4a.75.75 0 0 1-.75-.75zM6.564 8.903a.75.75 0 0 0-1.061 1.06L7.239 11.7l-1.736 1.737a.75.75 0 1 0 1.06 1.06L8.83 12.23a.75.75 0 0 0 0-1.06L6.564 8.903z"/></symbol><symbol id="icon-search" viewBox="0 0 20 20"><path fill-rule="evenodd" clip-rule="evenodd" d="M4.167 9.167c0-2.758 2.242-5 5-5 2.757 0 5 2.242 5 5 0 2.757-2.243 5-5 5-2.758 0-5-2.243-5-5zm13.089 6.91l-2.83-2.83a6.626 6.626 0 0 0 1.407-4.08A6.674 6.674 0 0 0 9.167 2.5 6.674 6.674 0 0 0 2.5 9.167a6.674 6.674 0 0 0 6.667 6.666c1.538 0 2.952-.529 4.08-1.406l2.83 2.829a.831.831 0 0 0 1.179 0 .832.832 0 0 0 0-1.178z"/></symbol><symbol id="icon-settings" viewBox="0 0 20 20"><path fill-rule="evenodd" clip-rule="evenodd" d="M6.3 19.067c.2.1.5.2.8.2.6 0 1.2-.2 1.6-.8l.7-.8c.3-.3.8-.3 1.1 0l.7.8c.6.7 1.6 1 2.5.6.9-.4 1.4-1.3 1.4-2.2l-.1-1.1c0-.3 0-.5.2-.6.2-.1.4-.2.6-.2l1.1.1c1 0 1.8-.5 2.2-1.4.3-.9.1-1.9-.6-2.5l-.8-.7c-.1-.1-.2-.3-.2-.5s0-.4.2-.5l.8-.7c.7-.6 1-1.6.6-2.5-.4-.9-1.2-1.5-2.2-1.4l-1.1.1c-.2 0-.5-.1-.6-.2-.1-.2-.2-.4-.2-.6l.1-1.1c0-1-.5-1.8-1.4-2.2-.9-.3-1.9-.1-2.5.6l-.7.9c-.3.3-.8.3-1.1 0l-.7-.8c-.6-.7-1.6-1-2.5-.6-.9.4-1.4 1.3-1.4 2.2l.2 1c0 .3-.1.5-.2.6-.2.1-.4.2-.6.2l-1.1-.1c-1 0-1.8.5-2.2 1.4-.4.9-.1 1.9.5 2.5l.8.7c.2.2.3.3.3.5s0 .4-.2.5l-.8.7c-.7.6-1 1.6-.6 2.5.4.9 1.3 1.5 2.2 1.4l1.1-.1c.3 0 .5 0 .6.2.1.2.2.4.2.6l-.1 1.1c0 1 .5 1.8 1.4 2.2zm-.5-4.7c-.4-.5-1-.7-1.6-.7h-.1l-1.1.1c-.3 0-.6-.2-.7-.5-.1-.3 0-.6.2-.8l.8-.7c.4-.5.7-1.1.7-1.7 0-.7-.2-1.3-.7-1.7l-.8-.7c-.3-.2-.3-.5-.2-.9.1-.2.4-.4.7-.4l1 .1c.7 0 1.3-.2 1.8-.6.4-.5.6-1.1.6-1.7l-.1-1.1c0-.3.2-.6.5-.7.3-.1.6-.1.8.2l.7.7c.8.9 2.5.9 3.3 0l.7-.7c.2-.2.5-.3.8-.2.3.1.5.4.5.7v1c-.1.6.2 1.3.6 1.7.5.5 1.1.7 1.7.7l1.2-.1c.3 0 .6.2.7.5.1.3 0 .6-.2.8l-.8.7c-.4.5-.7 1.1-.7 1.7 0 .7.2 1.3.7 1.7l.8.7c.2.2.3.5.2.8-.1.3-.4.5-.7.5l-1.1-.1c-.6-.1-1.3.2-1.7.6-.5.5-.7 1.1-.7 1.7l.1 1.2c0 .3-.2.6-.5.7-.3.1-.6 0-.8-.2l-.7-.8c-.8-.9-2.5-.9-3.3 0l-.7.8c-.2.2-.5.3-.8.2-.3-.1-.5-.4-.5-.7l.1-1.1c0-.6-.3-1.3-.7-1.7zm0-4.4c0 2.3 1.9 4.2 4.2 4.2 2.3 0 4.2-1.9 4.2-4.2 0-2.3-1.9-4.2-4.2-4.2-2.3 0-4.2 1.9-4.2 4.2zm1.5.1c0-1.5 1.2-2.7 2.7-2.7 1.4 0 2.6 1.3 2.6 2.7 0 1.4-1.1 2.7-2.6 2.7s-2.7-1.2-2.7-2.7z"/></symbol><symbol id="icon-sos" viewBox="0 0 20 20"><path d="M18 10c0-4.42-3.58-8-8-8s-8 3.58-8 8 3.58 8 8 8 8-3.58 8-8zM7.23 3.57L8.72 7.3c-.62.29-1.13.8-1.42 1.42L3.57 7.23a7.037 7.037 0 0 1 3.66-3.66zm9.2 3.66L12.7 8.72c-.29-.62-.8-1.13-1.42-1.42l1.49-3.73c1.64.71 2.95 2.02 3.66 3.66zM10 12c-1.1 0-2-.9-2-2s.9-2 2-2 2 .9 2 2-.9 2-2 2zm-6.43.77l3.73-1.49c.29.62.8 1.13 1.42 1.42l-1.49 3.73a7.037 7.037 0 0 1-3.66-3.66zm9.2 3.66l-1.49-3.73c.62-.29 1.13-.8 1.42-1.42l3.73 1.49a7.037 7.037 0 0 1-3.66 3.66z"/></symbol><symbol id="icon-start" viewBox="0 0 20 20"><path fill-rule="evenodd" clip-rule="evenodd" d="M4.95 0A1.95 1.95 0 0 0 3 1.95v1.894c0 1.424.441 2.745 1.195 3.835.049.18.164.34.334.444a6.778 6.778 0 0 0 2.126 1.72 6.75 6.75 0 0 0-3.655 6v1.894a1.95 1.95 0 0 0 1.95 1.95h9.6a1.95 1.95 0 0 0 1.95-1.95v-1.893a6.75 6.75 0 0 0-3.655-6 6.778 6.778 0 0 0 2.124-1.72.75.75 0 0 0 .339-.448A6.719 6.719 0 0 0 16.5 3.844V1.95A1.95 1.95 0 0 0 14.55 0h-9.6zm9.619 5.931c.277-.64.431-1.346.431-2.087V1.95a.45.45 0 0 0-.45-.45h-9.6a.45.45 0 0 0-.45.45v1.894c0 .742.154 1.448.432 2.088a8.324 8.324 0 0 1 1.491-1.706c.923-.791 2.061-1.351 3.328-1.351 1.266 0 2.404.56 3.327 1.351a8.327 8.327 0 0 1 1.49 1.705zM4.5 15.844a5.25 5.25 0 1 1 10.5 0v1.893a.45.45 0 0 1-.45.45h-9.6a.45.45 0 0 1-.45-.45v-1.893z"/></symbol><symbol id="icon-sticky" viewBox="0 0 20 20"><path fill-rule="evenodd" clip-rule="evenodd" d="M14.394.042c-.25.138-.276.195-.79 1.739l-.499 1.498-2.784 1.856a251.09 251.09 0 0 1-2.805 1.856 2.56 2.56 0 0 1-.279-.212 2.844 2.844 0 0 0-1.87-.655c-.855.001-1.477.27-2.18.942-.442.423-.54.66-.395.953.034.069.98 1.044 2.1 2.167l2.038 2.042-3.405 3.409C1.652 17.512.09 19.102.057 19.17c-.238.478.292 1.008.77.77.069-.034 1.659-1.595 3.534-3.468l3.41-3.405 2.041 2.038c1.123 1.12 2.098 2.066 2.167 2.1.29.145.533.046.94-.383.349-.367.487-.555.66-.898.208-.41.294-.79.294-1.294 0-.7-.187-1.26-.6-1.794a35.997 35.997 0 0 1-.242-.314c-.023-.03.587-.979 1.824-2.833l1.857-2.787 1.49-.498c1.034-.345 1.521-.526 1.59-.59.198-.186.257-.411.168-.648-.052-.14-4.937-5.033-5.103-5.111-.144-.069-.352-.075-.463-.014zm3.019 5.396l-.909.303-1.123-1.123-1.124-1.124.303-.909.302-.908 1.73 1.729 1.729 1.73-.908.302zm-3.554 3.636l-1.72 2.579-1.89-1.89C9.21 8.724 8.37 7.864 8.38 7.853c.011-.012 1.166-.788 2.568-1.725l2.548-1.704 1.042 1.035 1.041 1.036-1.72 2.579zM5.836 7.35c.425.107.467.146 3.6 3.286 2.762 2.768 3.019 3.037 3.113 3.252.141.326.192.68.144.996-.043.275-.258.76-.39.88-.082.074-.09.066-4.112-3.957-4.023-4.022-4.03-4.03-3.957-4.112.111-.123.597-.347.84-.387.229-.038.506-.023.762.042z"/></symbol><symbol id="icon-team" viewBox="0 0 20 16"><path fill-rule="evenodd" clip-rule="evenodd" d="M2.35 4.088a4.05 4.05 0 1 1 8.1 0 4.05 4.05 0 0 1-8.1 0zm4.05-2.55a2.55 2.55 0 1 0 0 5.1 2.55 2.55 0 0 0 0-5.1zm8.183.442a3.45 3.45 0 1 0 0 6.9 3.45 3.45 0 0 0 0-6.9zm-1.95 3.45a1.95 1.95 0 1 1 3.9 0 1.95 1.95 0 0 1-3.9 0zm.677 6.105a3.67 3.67 0 0 1 4.904 2.927h-4.03a.75.75 0 0 0 0 1.5H19a.75.75 0 0 0 .74-.87.767.767 0 0 0 .01-.115 5.17 5.17 0 0 0-6.96-4.85.75.75 0 1 0 .52 1.408zM1.778 14.462a4.65 4.65 0 0 1 9.244 0H1.778zm-1.519.633a.755.755 0 0 1-.009-.118 6.15 6.15 0 1 1 12.3 0c0 .04-.003.08-.01.117a.75.75 0 0 1-.74.867H1a.75.75 0 0 1-.74-.867z"/></symbol><symbol id="icon-wordpress" viewBox="0 0 20 20"><path d="M20 10c0-5.51-4.49-10-10-10C4.48 0 0 4.49 0 10c0 5.52 4.48 10 10 10 5.51 0 10-4.48 10-10zM7.78 15.37L4.37 6.22c.55-.02 1.17-.08 1.17-.08.5-.06.44-1.13-.06-1.11 0 0-1.45.11-2.37.11-.18 0-.37 0-.58-.01A8.87 8.87 0 0 1 10 1.11c2.33 0 4.45.87 6.05 2.34-.68-.11-1.65.39-1.65 1.58 0 .74.45 1.36.9 2.1.35.61.55 1.36.55 2.46 0 1.49-1.4 5-1.4 5l-3.03-8.37c.54-.02.82-.17.82-.17.5-.05.44-1.25-.06-1.22 0 0-1.44.12-2.38.12-.87 0-2.33-.12-2.33-.12-.5-.03-.56 1.2-.06 1.22l.92.08 1.26 3.41zM17.41 10c.24-.64.74-1.87.43-4.25.7 1.29 1.05 2.71 1.05 4.25 0 3.29-1.73 6.24-4.4 7.78.97-2.59 1.94-5.2 2.92-7.78zM6.1 18.09C3.12 16.65 1.11 13.53 1.11 10c0-1.3.23-2.48.72-3.59C3.25 10.3 4.67 14.2 6.1 18.09zm4.03-6.63l2.58 6.98c-.86.29-1.76.45-2.71.45-.79 0-1.57-.11-2.29-.33.81-2.38 1.62-4.74 2.42-7.1z"/></symbol></svg>