<svg viewBox="0 0 16 17" fill="none" xmlns="http://www.w3.org/2000/svg">
<path fill-rule="evenodd" clip-rule="evenodd" d="M0 2.5C0 1.39543 0.895431 0.5 2 0.5H14C15.1046 0.5 16 1.39543 16 2.5V14.5C16 15.6046 15.1046 16.5 14 16.5H2C0.895431 16.5 0 15.6046 0 14.5V2.5ZM4.99805 3.5C4.99805 4.24325 4.45748 4.86024 3.74805 4.97926V7.02074C4.37617 7.12612 4.87193 7.62187 4.97731 8.25H6.52074C6.63976 7.54057 7.25675 7 8 7C8.74325 7 9.36024 7.54057 9.47926 8.25H11.0227C11.1281 7.62187 11.6238 7.12612 12.252 7.02074V4.97926C11.5425 4.86024 11.002 4.24325 11.002 3.5C11.002 2.67157 11.6735 2 12.502 2C13.3304 2 14.002 2.67157 14.002 3.5C14.002 4.24325 13.4614 4.86024 12.752 4.97926V7.02074C13.4614 7.13976 14.002 7.75675 14.002 8.5C14.002 9.24325 13.4614 9.86024 12.752 9.97926V12.1366C13.4614 12.2557 14.002 12.8727 14.002 13.6159C14.002 14.4443 13.3304 15.1159 12.502 15.1159C11.6735 15.1159 11.002 14.4443 11.002 13.6159C11.002 12.8727 11.5425 12.2557 12.252 12.1366V9.97926C11.6238 9.87388 11.1281 9.37813 11.0227 8.75H9.47926C9.36024 9.45943 8.74325 10 8 10C7.25675 10 6.63976 9.45943 6.52074 8.75H4.97731C4.87193 9.37813 4.37617 9.87388 3.74805 9.97926V12.1366C4.45748 12.2557 4.99805 12.8727 4.99805 13.6159C4.99805 14.4443 4.32647 15.1159 3.49805 15.1159C2.66962 15.1159 1.99805 14.4443 1.99805 13.6159C1.99805 12.8727 2.53862 12.2557 3.24805 12.1366V9.97926C2.53862 9.86024 1.99805 9.24325 1.99805 8.5C1.99805 7.75675 2.53862 7.13976 3.24805 7.02074V4.97926C2.53862 4.86024 1.99805 4.24325 1.99805 3.5C1.99805 2.67157 2.66962 2 3.49805 2C4.32647 2 4.99805 2.67157 4.99805 3.5Z" fill="url(#paint0_linear_387_17608)"/>
<defs>
<linearGradient id="paint0_linear_387_17608" x1="16" y1="16.5" x2="-9.53674e-07" y2="0.500001" gradientUnits="userSpaceOnUse">
<stop stop-color="#0052D4"/>
<stop offset="1" stop-color="#8B6FFC"/>
</linearGradient>
</defs>
</svg>
