<svg width="16" height="16" viewBox="0 0 16 16" fill="none" xmlns="http://www.w3.org/2000/svg">
<path d="M7.08265 2.10723C7.43134 1.30589 8.56787 1.30589 8.91656 2.10723L9.94188 4.46356C10.0868 4.7967 10.4011 5.02501 10.7627 5.05993L13.3206 5.30692C14.1904 5.39092 14.5416 6.47182 13.8873 7.05107L11.9631 8.75436C11.6911 8.99517 11.571 9.36458 11.6496 9.71931L12.2051 12.2283C12.394 13.0815 11.4745 13.7496 10.7214 13.3062L8.50691 12.0026C8.19382 11.8183 7.80539 11.8183 7.4923 12.0026L5.27778 13.3062C4.52467 13.7496 3.6052 13.0815 3.79412 12.2283L4.34963 9.71931C4.42817 9.36458 4.30814 8.99517 4.0361 8.75436L2.11194 7.05107C1.45758 6.47182 1.80878 5.39092 2.67865 5.30692L5.2365 5.05993C5.59813 5.02501 5.91237 4.7967 6.05733 4.46356L7.08265 2.10723Z" fill="#F1C178"/>
<path fill-rule="evenodd" clip-rule="evenodd" d="M9.02493 4.86256L7.99961 2.50623L6.97428 4.86256C6.68436 5.52884 6.05588 5.98546 5.33261 6.0553L2.77476 6.30229L4.69893 8.00558C5.24301 8.48721 5.48307 9.22604 5.32599 9.93548L4.77048 12.4445L6.985 11.1408C7.61118 10.7722 8.38803 10.7722 9.01421 11.1408L11.2287 12.4445L10.6732 9.93548C10.5161 9.22604 10.7562 8.48721 11.3003 8.00558L13.2244 6.30229L10.6666 6.0553C9.94334 5.98546 9.31485 5.52884 9.02493 4.86256ZM8.91656 2.10723C8.56787 1.30589 7.43134 1.30589 7.08265 2.10723L6.05733 4.46356C5.91237 4.7967 5.59813 5.02501 5.2365 5.05993L2.67865 5.30692C1.80878 5.39092 1.45758 6.47182 2.11194 7.05107L4.0361 8.75436C4.30814 8.99517 4.42817 9.36458 4.34963 9.71931L3.79412 12.2283C3.6052 13.0815 4.52467 13.7496 5.27778 13.3062L7.4923 12.0026C7.80539 11.8183 8.19382 11.8183 8.50691 12.0026L10.7214 13.3062C11.4745 13.7496 12.394 13.0815 12.2051 12.2283L11.6496 9.71931C11.571 9.36458 11.6911 8.99517 11.9631 8.75436L13.8873 7.05107C14.5416 6.47182 14.1904 5.39092 13.3206 5.30692L10.7627 5.05993C10.4011 5.02501 10.0868 4.7967 9.94188 4.46356L8.91656 2.10723Z" fill="#DB7738"/>
</svg>
