<svg width="83" height="45" viewBox="0 0 83 45" fill="none" xmlns="http://www.w3.org/2000/svg">
<path d="M3.15957 9.64627C3.15942 9.83847 3.10739 10.0272 3.00872 10.1936L6.00053 11.88C6.09877 11.7134 6.24021 11.5751 6.4106 11.4789C6.58099 11.3827 6.77432 11.3321 6.97112 11.3321C7.16793 11.3321 7.36126 11.3827 7.53165 11.4789C7.70204 11.5751 7.84347 11.7134 7.94171 11.88L10.9335 10.1923C10.8345 10.0261 10.7823 9.83724 10.7823 9.64497C10.7823 9.45271 10.8345 9.26387 10.9335 9.09769L10.1396 8.64862C10.0062 8.87066 9.91895 9.11621 9.88285 9.37122C9.84675 9.62623 9.8625 9.88569 9.92919 10.1348L8.39756 11.0032C8.01715 10.6391 7.50574 10.4351 6.97311 10.4351C6.44047 10.4351 5.92906 10.6391 5.54865 11.0032L4.01569 10.136C4.10315 9.81336 4.10315 9.47401 4.01569 9.15132L5.54534 8.28936C5.76748 8.5022 6.03659 8.6625 6.33202 8.75797C6.62745 8.85344 6.94135 8.88155 7.24963 8.84012C7.55791 8.7987 7.85238 8.68885 8.11043 8.519C8.36848 8.34916 8.58326 8.12384 8.73829 7.86032L7.94435 7.41126C7.84612 7.5778 7.70468 7.71613 7.53429 7.81231C7.3639 7.90849 7.17057 7.95913 6.97377 7.95913C6.77696 7.95913 6.58363 7.90849 6.41324 7.81231C6.24285 7.71613 6.10142 7.5778 6.00318 7.41126L3.00806 9.09834C3.10742 9.26463 3.15971 9.45373 3.15957 9.64627Z" fill="url(#paint0_linear_251_10113)"/>
<path d="M10.1418 5.07749L10.9357 4.62842C11.0339 4.79525 11.1755 4.93385 11.3461 5.03022C11.5166 5.12659 11.7102 5.17733 11.9073 5.17733C12.1043 5.17733 12.2979 5.12659 12.4685 5.03022C12.6391 4.93385 12.7806 4.79525 12.8789 4.62842L13.6728 5.07749C13.4058 5.52775 12.97 5.85889 12.4574 6.00083V7.72603C12.9695 7.86781 13.4051 8.19844 13.6721 8.64808L12.8782 9.09715C12.78 8.9306 12.6385 8.79228 12.4681 8.69609C12.2977 8.59991 12.1044 8.54927 11.9076 8.54927C11.7108 8.54927 11.5175 8.59991 11.3471 8.69609C11.1767 8.79228 11.0353 8.9306 10.937 9.09715L10.1431 8.64808C10.4099 8.19833 10.8452 7.86747 11.3572 7.72539V6.00018C10.8449 5.85809 10.4091 5.52727 10.1418 5.07749ZM15.0761 5.86578C14.8954 6.16829 14.8001 6.51224 14.8001 6.86246C14.8001 7.21269 14.8954 7.55663 15.0761 7.85914L15.87 7.41007C15.771 7.24377 15.7188 7.05483 15.7188 6.86246C15.7188 6.67009 15.771 6.48115 15.87 6.31485L15.0761 5.86578ZM8.09738 6.86343C8.09752 7.05567 8.04546 7.24451 7.94653 7.41071L8.74047 7.85914C8.92106 7.55671 9.01621 7.21288 9.01621 6.86278C9.01621 6.51269 8.92106 6.16886 8.74047 5.86643L7.94653 6.31873C8.04501 6.48417 8.09705 6.67206 8.09738 6.86343Z" fill="url(#paint1_linear_251_10113)"/>
<path d="M14.7989 12.4246C14.7992 12.0752 14.8942 11.7322 15.0741 11.4302L15.868 11.8793C15.7693 12.0455 15.7173 12.2343 15.7173 12.4265C15.7173 12.6188 15.7693 12.8076 15.868 12.9738L15.0741 13.4229C14.8933 13.1199 14.7983 12.7753 14.7989 12.4246ZM11.9089 10.7401C11.7121 10.7402 11.5188 10.6895 11.3484 10.5933C11.1779 10.4971 11.0365 10.3588 10.9384 10.1922L7.94653 11.8799C8.04548 12.0462 8.0976 12.2352 8.0976 12.4275C8.0976 12.6199 8.04548 12.8088 7.94653 12.9751L8.74047 13.4242C9.00953 12.9756 9.0852 12.4411 8.95086 11.9381L10.4818 11.0748C10.7262 11.3069 11.0259 11.4759 11.3538 11.5665V14.9L11.9076 15.2121L12.4607 14.9V11.5633C12.9729 11.4214 13.4085 11.0905 13.6754 10.6406L12.8815 10.1915C12.7832 10.3585 12.6415 10.4971 12.4707 10.5935C12.2999 10.6898 12.1061 10.7404 11.9089 10.7401Z" fill="url(#paint2_linear_251_10113)"/>
<path d="M0.273572 14.2138L1.06751 14.6629C1.16561 14.4959 1.30711 14.3571 1.4777 14.2606C1.64829 14.1641 1.84194 14.1133 2.03909 14.1133C2.23623 14.1133 2.42988 14.1641 2.60047 14.2606C2.77107 14.3571 2.91256 14.4959 3.01067 14.6629L3.8046 14.2138C3.53777 13.7633 3.10187 13.4319 2.58922 13.2898V11.5653C2.91855 11.475 3.21933 11.3052 3.46387 11.0716L4.99352 11.9349C4.92662 12.1844 4.91077 12.4444 4.94688 12.7C4.98298 12.9556 5.07032 13.2017 5.20392 13.4242L5.99785 12.9719C5.8989 12.8057 5.84677 12.6169 5.84677 12.4246C5.84677 12.2324 5.8989 12.0436 5.99785 11.8774L3.00604 10.1909C2.90784 10.3576 2.76639 10.4961 2.59593 10.5924C2.42547 10.6887 2.23203 10.7394 2.03512 10.7394C1.8382 10.7394 1.64476 10.6887 1.47431 10.5924C1.30385 10.4961 1.16239 10.3576 1.0642 10.1909L0.270264 10.64C0.537615 11.0916 0.974847 11.4236 1.48896 11.5653V13.2905C0.976413 13.4324 0.540534 13.7636 0.273572 14.2138Z" fill="url(#paint3_linear_251_10113)"/>
<path d="M4.08172 15.2087C4.08161 15.5593 3.98618 15.9036 3.80517 16.2064L3.01123 15.7573C3.11024 15.591 3.1624 15.4021 3.1624 15.2097C3.1624 15.0173 3.11024 14.8284 3.01123 14.6621L3.80517 14.213C3.98604 14.5151 4.08148 14.8588 4.08172 15.2087ZM6.97165 16.8945C7.16864 16.8945 7.36215 16.9452 7.53267 17.0415C7.7032 17.1378 7.8447 17.2763 7.9429 17.4431L11.9053 15.2087L11.3515 14.8966L8.39875 16.5637C8.17637 16.3511 7.90709 16.1911 7.61156 16.0959C7.31603 16.0007 7.0021 15.9728 6.69385 16.0145C6.3856 16.0562 6.09121 16.1662 5.83327 16.3362C5.57533 16.5063 5.36069 16.7317 5.2058 16.9953L5.99974 17.4444C6.09783 17.2773 6.23936 17.1384 6.41002 17.0419C6.58068 16.9453 6.77442 16.8945 6.97165 16.8945ZM6.97165 14.4224C7.33004 14.4219 7.68199 14.3293 7.99218 14.154C8.30236 13.9786 8.55985 13.7267 8.73882 13.4234L7.94488 12.9744C7.84664 13.1409 7.70521 13.2792 7.53482 13.3754C7.36443 13.4716 7.1711 13.5222 6.9743 13.5222C6.77749 13.5222 6.58416 13.4716 6.41377 13.3754C6.24338 13.2792 6.10195 13.1409 6.00371 12.9744L5.20977 13.4267C5.38865 13.7286 5.64549 13.9794 5.95464 14.1542C6.2638 14.3289 6.61446 14.4214 6.97165 14.4224Z" fill="url(#paint4_linear_251_10113)"/>
<path d="M0.919474 15.2091C0.919404 15.0173 0.971215 14.829 1.06966 14.6631L0.275724 14.214C0.0951454 14.5165 0 14.8605 0 15.2107C0 15.5609 0.0951454 15.9048 0.275724 16.2073L1.06966 15.755C0.971069 15.5892 0.919247 15.4008 0.919474 15.2091Z" fill="#B70E0C"/>
<path d="M6.00643 18.5399L3.01527 20.227C2.91726 20.0597 2.77573 19.9206 2.605 19.8239C2.43426 19.7272 2.2404 19.6763 2.04303 19.6763C1.84566 19.6763 1.6518 19.7272 1.48107 19.8239C1.31034 19.9206 1.1688 20.0597 1.07079 20.227L0.276855 19.7779C0.431512 19.514 0.646051 19.2882 0.903992 19.1179C1.16193 18.9476 1.45641 18.8374 1.76481 18.7956C2.0732 18.7537 2.3873 18.7815 2.68298 18.8768C2.97866 18.972 3.24806 19.1322 3.47046 19.345L5.00144 18.4824C4.86764 17.9794 4.94303 17.4451 5.21117 16.9963L6.0051 17.4453C5.90616 17.6117 5.85404 17.8006 5.85404 17.9929C5.85404 18.1853 5.90616 18.3742 6.0051 18.5405L6.00643 18.5399ZM2.04336 17.2063C2.40148 17.206 2.75321 17.1137 3.06327 16.9387C3.37334 16.7637 3.63081 16.5121 3.80987 16.2093L3.01594 15.757C2.91774 15.9234 2.7764 16.0616 2.60613 16.1577C2.43586 16.2538 2.24267 16.3044 2.04601 16.3044C1.84935 16.3044 1.65616 16.2538 1.48589 16.1577C1.31562 16.0616 1.17428 15.9234 1.07608 15.757L0.282148 16.206C0.460388 16.5087 0.716863 16.7604 1.02593 16.9359C1.335 17.1115 1.68584 17.2047 2.04336 17.2063Z" fill="#E5005B"/>
<path d="M22.3266 13.2886V11.5634C22.839 11.4211 23.2746 11.0897 23.5413 10.6394L22.7474 10.1903C22.6493 10.3573 22.5078 10.4961 22.3372 10.5926C22.1666 10.6891 21.9729 10.7399 21.7758 10.7399C21.5787 10.7399 21.385 10.6891 21.2144 10.5926C21.0438 10.4961 20.9023 10.3573 20.8042 10.1903L17.8137 11.8774C17.9127 12.0437 17.9648 12.2326 17.9648 12.425C17.9648 12.6174 17.9127 12.8063 17.8137 12.9726L18.6077 13.4217C18.7418 13.1993 18.8295 12.9533 18.8659 12.6976C18.9022 12.442 18.8864 12.1819 18.8194 11.9323L20.3477 11.0678C20.5922 11.3009 20.8927 11.4704 21.2217 11.5608V13.2866C20.7095 13.4286 20.2739 13.7594 20.007 14.2093L20.8009 14.6584C20.8991 14.4917 21.0406 14.3532 21.211 14.2569C21.3815 14.1607 21.5749 14.11 21.7718 14.11C21.9687 14.11 22.1622 14.1607 22.3326 14.2569C22.5031 14.3532 22.6445 14.4917 22.7427 14.6584L23.5367 14.2093C23.2704 13.7611 22.8367 13.4311 22.3266 13.2886Z" fill="url(#paint5_linear_251_10113)"/>
<path d="M22.8965 15.2077C22.8963 15.3999 22.8443 15.5887 22.7456 15.755L23.5395 16.2041C23.7202 15.9015 23.8155 15.5574 23.8155 15.2071C23.8155 14.8568 23.7202 14.5127 23.5395 14.2101L22.7456 14.6592C22.8445 14.8259 22.8965 15.0151 22.8965 15.2077Z" fill="#00A8B0"/>
<path d="M20.8002 15.7548L20.0062 16.2039C19.8255 15.9014 19.7303 15.5574 19.7303 15.2072C19.7303 14.857 19.8255 14.5131 20.0062 14.2105L20.8002 14.6596C20.7012 14.8259 20.649 15.0149 20.649 15.2072C20.649 15.3996 20.7012 15.5885 20.8002 15.7548ZM15.4113 16.5599L12.4559 14.8955L11.9048 15.2088L15.8665 17.4426C15.9645 17.2755 16.106 17.1368 16.2765 17.0402C16.4471 16.9437 16.6407 16.8929 16.8378 16.8929C17.0349 16.8929 17.2285 16.9437 17.399 17.0402C17.5696 17.1368 17.711 17.2755 17.809 17.4426L18.603 16.9935C18.3363 16.5431 17.9007 16.2117 17.3882 16.0695V14.343C17.8997 14.2011 18.3348 13.8707 18.6016 13.4216L17.8077 12.9725C17.7094 13.1388 17.568 13.2768 17.3977 13.3728C17.2275 13.4688 17.0344 13.5193 16.8378 13.5193C16.6412 13.5193 16.4481 13.4688 16.2778 13.3728C16.1076 13.2768 15.9662 13.1388 15.8679 12.9725L15.0739 13.4216C15.3408 13.8707 15.7758 14.2011 16.2873 14.343V16.0695C15.958 16.1591 15.6569 16.3277 15.4113 16.5599Z" fill="url(#paint6_linear_251_10113)"/>
<path d="M23.542 19.7751L22.748 20.2241C22.6498 20.0574 22.5084 19.919 22.3379 19.8227C22.1675 19.7264 21.974 19.6757 21.7771 19.6757C21.5802 19.6757 21.3868 19.7264 21.2163 19.8227C21.0458 19.919 20.9044 20.0574 20.8062 20.2241L17.8137 18.5371C17.9127 18.3707 17.9648 18.1818 17.9648 17.9894C17.9648 17.7971 17.9127 17.6082 17.8137 17.4418L18.6077 16.9928C18.7412 17.2147 18.8286 17.4603 18.8647 17.7153C18.9008 17.9704 18.8849 18.2299 18.818 18.4789L20.3503 19.3428C20.5727 19.1306 20.8418 18.9709 21.137 18.8759C21.4323 18.7809 21.7459 18.7532 22.0538 18.7948C22.3618 18.8365 22.6559 18.9464 22.9136 19.1162C23.1713 19.286 23.3858 19.5112 23.5406 19.7744L23.542 19.7751ZM21.7748 17.2015C22.1331 17.2012 22.485 17.1088 22.7952 16.9337C23.1053 16.7586 23.3629 16.5069 23.542 16.2038L22.748 15.7548C22.6497 15.9213 22.5082 16.0596 22.3378 16.1558C22.1673 16.2519 21.974 16.3026 21.7771 16.3026C21.5803 16.3026 21.3869 16.2519 21.2165 16.1558C21.046 16.0596 20.9045 15.9213 20.8062 15.7548L20.0123 16.2038C20.1909 16.5065 20.4478 16.758 20.7572 16.9332C21.0666 17.1084 21.4178 17.2011 21.7755 17.2021L21.7748 17.2015Z" fill="url(#paint7_linear_251_10113)"/>
<path d="M11.9083 18.7788C11.3758 18.7787 10.8644 18.9823 10.4838 19.3461L8.95219 18.4829C9.03956 18.1604 9.03956 17.8213 8.95219 17.4988L11.9083 15.8311L14.8637 17.4962C14.7967 17.7459 14.7809 18.0061 14.8172 18.2619C14.8536 18.5176 14.9413 18.7637 15.0754 18.9862L15.8694 18.5372C15.7703 18.3709 15.7182 18.1819 15.7182 17.9895C15.7182 17.7972 15.7703 17.6082 15.8694 17.4419L11.9083 15.2089L7.94653 17.4439C8.04548 17.6102 8.0976 17.7991 8.0976 17.9915C8.0976 18.1838 8.04548 18.3728 7.94653 18.5391L10.939 20.2262C11.0372 20.0595 11.1787 19.921 11.3491 19.8247C11.5196 19.7284 11.713 19.6777 11.9099 19.6777C12.1068 19.6777 12.3003 19.7284 12.4707 19.8247C12.6412 19.921 12.7827 20.0595 12.8808 20.2262L13.6748 19.7739C13.4954 19.4714 13.2378 19.2203 12.9278 19.0456C12.6178 18.871 12.2662 18.779 11.9083 18.7788Z" fill="url(#paint8_linear_251_10113)"/>
<path d="M18.6046 22.5576L17.8106 23.0099C17.7126 22.8429 17.5712 22.7041 17.4007 22.6076C17.2301 22.5111 17.0365 22.4603 16.8394 22.4603C16.6423 22.4603 16.4487 22.5111 16.2781 22.6076C16.1076 22.7041 15.9662 22.8429 15.8681 23.0099L15.0742 22.5609C15.2528 22.2572 15.5103 22.005 15.8206 21.8296C16.1309 21.6542 16.4831 21.5618 16.8417 21.5618C17.2003 21.5618 17.5525 21.6542 17.8628 21.8296C18.1731 22.005 18.4306 22.2572 18.6092 22.5609L18.6046 22.5576ZM20.6483 20.7717C20.6481 20.5796 20.7001 20.391 20.7991 20.225L17.8067 18.538C17.7083 18.7042 17.5669 18.8422 17.3967 18.9382C17.2264 19.0342 17.0333 19.0847 16.8367 19.0847C16.6402 19.0847 16.447 19.0342 16.2768 18.9382C16.1065 18.8422 15.9651 18.7042 15.8668 18.538L15.0729 18.987C15.228 19.2503 15.4428 19.4753 15.7007 19.645C15.9587 19.8146 16.253 19.9243 16.5611 19.9656C16.8692 20.007 17.1829 19.9789 17.4782 19.8835C17.7734 19.7882 18.0424 19.628 18.2645 19.4154L19.7948 20.2787C19.7279 20.5285 19.7121 20.7887 19.7482 21.0444C19.7843 21.3002 19.8716 21.5465 20.0052 21.7693L20.7991 21.317C20.701 21.1512 20.6493 20.9632 20.649 20.7717H20.6483ZM13.0258 20.7717C13.026 20.9639 12.9739 21.1528 12.875 21.319L13.6689 21.768C13.8501 21.4656 13.9456 21.1215 13.9456 20.771C13.9456 20.4206 13.8501 20.0765 13.6689 19.774L12.875 20.2263C12.9751 20.3922 13.0283 20.5811 13.0292 20.7736L13.0258 20.7717Z" fill="url(#paint9_linear_251_10113)"/>
<path d="M6.98138 21.5587C6.62254 21.5591 6.27013 21.6518 5.95966 21.8275C5.64919 22.0032 5.39161 22.2557 5.21289 22.5596L6.00683 23.0087C6.10484 22.8414 6.24637 22.7023 6.4171 22.6056C6.58784 22.5089 6.7817 22.458 6.97907 22.458C7.17643 22.458 7.3703 22.5089 7.54103 22.6056C7.71176 22.7023 7.8533 22.8414 7.95131 23.0087L8.74524 22.5596C8.56681 22.2565 8.30994 22.0044 8.00038 21.8288C7.69081 21.6531 7.33941 21.56 6.98138 21.5587Z" fill="url(#paint10_linear_251_10113)"/>
<path d="M3.80451 21.7712C3.98577 21.468 4.08143 21.1233 4.08172 20.7723C4.0805 20.6063 4.05828 20.4412 4.01556 20.2805L5.5472 19.4173C5.92783 19.7815 6.43946 19.9854 6.97231 19.9854C7.50516 19.9854 8.01679 19.7815 8.39743 19.4173L9.9284 20.2799C9.86145 20.5296 9.84557 20.7897 9.88167 21.0454C9.91778 21.301 10.0051 21.5472 10.1388 21.7699L10.9327 21.3208C10.8337 21.1545 10.7816 20.9656 10.7816 20.7732C10.7816 20.5809 10.8337 20.3919 10.9327 20.2256L7.94224 18.5392C7.84391 18.7054 7.70252 18.8435 7.53226 18.9394C7.36201 19.0354 7.16889 19.0859 6.97231 19.0859C6.77573 19.0859 6.58261 19.0354 6.41236 18.9394C6.24211 18.8435 6.10071 18.7054 6.00239 18.5392L3.01123 20.2269C3.11024 20.3932 3.1624 20.5822 3.1624 20.7745C3.1624 20.9669 3.11024 21.1558 3.01123 21.3221L3.80451 21.7712Z" fill="url(#paint11_linear_251_10113)"/>
<path d="M15.0731 7.85825L15.867 7.40918C15.9653 7.57602 16.1068 7.71461 16.2774 7.81098C16.448 7.90735 16.6415 7.95809 16.8386 7.95809C17.0357 7.95809 17.2293 7.90735 17.3998 7.81098C17.5704 7.71461 17.712 7.57602 17.8102 7.40918L20.8013 9.09562C20.7023 9.26179 20.6502 9.45063 20.6502 9.6429C20.6502 9.83517 20.7023 10.024 20.8013 10.1902L17.8109 11.8773C17.7128 11.7103 17.5713 11.5715 17.4007 11.475C17.2301 11.3785 17.0364 11.3277 16.8393 11.3277C16.6421 11.3277 16.4485 11.3785 16.2779 11.475C16.1073 11.5715 15.9658 11.7103 15.8677 11.8773L15.0738 11.4288C15.2285 11.1651 15.4431 10.9395 15.701 10.7693C15.9589 10.5992 16.2533 10.489 16.5616 10.4473C16.8699 10.4055 17.1839 10.4333 17.4795 10.5285C17.775 10.6238 18.0443 10.7839 18.2667 10.9966L19.797 10.134C19.754 9.97385 19.7318 9.80908 19.7309 9.64354C19.7318 9.47716 19.754 9.31153 19.797 9.15054L18.2674 8.28923C18.0451 8.50225 17.7759 8.66269 17.4802 8.75821C17.1846 8.85373 16.8705 8.88179 16.562 8.84023C16.2535 8.79868 15.9589 8.68861 15.7008 8.51849C15.4427 8.34837 15.228 8.12273 15.0731 7.8589V7.85825ZM13.0327 9.64613C13.0325 9.83833 12.9805 10.0271 12.8818 10.1934L13.6758 10.6425C13.8565 10.34 13.9517 9.99603 13.9517 9.64581C13.9517 9.29558 13.8565 8.95164 13.6758 8.64913L12.8818 9.0982C12.9809 9.2646 13.0329 9.45367 13.0327 9.64613Z" fill="url(#paint12_linear_251_10113)"/>
<path d="M5.21289 5.86628C5.39155 5.5628 5.64899 5.3107 5.95925 5.13539C6.26951 4.96009 6.62162 4.86778 6.98006 4.86778C7.3385 4.86778 7.69061 4.96009 8.00087 5.13539C8.31113 5.3107 8.56857 5.5628 8.74723 5.86628L7.95329 6.31858C7.85519 6.15187 7.71381 6.01337 7.5434 5.91707C7.37299 5.82076 7.17959 5.77005 6.98271 5.77005C6.78582 5.77005 6.59242 5.82076 6.42202 5.91707C6.25161 6.01337 6.11022 6.15187 6.01212 6.31858L5.21289 5.86628ZM10.1465 3.08398C9.96549 3.38626 9.87007 3.73015 9.87007 4.08034C9.87007 4.43053 9.96549 4.77441 10.1465 5.07669L10.9405 4.62762C10.8415 4.46132 10.7893 4.27238 10.7893 4.08001C10.7893 3.88765 10.8415 3.69871 10.9405 3.53241L10.1465 3.08398Z" fill="url(#paint13_linear_251_10113)"/>
<path d="M10.9368 3.53302C11.0349 3.36661 11.1763 3.2284 11.3466 3.1323C11.5168 3.03621 11.71 2.98561 11.9067 2.98561C12.1033 2.98561 12.2965 3.03621 12.4668 3.1323C12.6371 3.2284 12.7784 3.36661 12.8766 3.53302L13.6705 3.08071C13.4919 2.77753 13.2345 2.52569 12.9245 2.35057C12.6144 2.17546 12.2625 2.08325 11.9044 2.08325C11.5462 2.08325 11.1943 2.17546 10.8842 2.35057C10.5742 2.52569 10.3168 2.77753 10.1382 3.08071L10.9368 3.53302Z" fill="#DEDC00"/>
<path d="M1.07278 9.09822C1.17097 8.93152 1.31242 8.79305 1.48288 8.69677C1.65334 8.60048 1.84678 8.54978 2.04369 8.54978C2.24061 8.54978 2.43405 8.60048 2.60451 8.69677C2.77496 8.79305 2.91642 8.93152 3.01461 9.09822L6.00643 7.41049C5.90748 7.24417 5.85536 7.05524 5.85536 6.86289C5.85536 6.67053 5.90748 6.4816 6.00643 6.31528L5.21249 5.86621C4.94379 6.31489 4.86813 6.84929 5.0021 7.35234L3.46649 8.21753C3.24414 8.00546 2.97505 7.84589 2.67982 7.75103C2.38459 7.65618 2.07105 7.62855 1.7632 7.67027C1.45536 7.71199 1.16137 7.82195 0.903741 7.99173C0.646114 8.16151 0.43168 8.38661 0.276855 8.6498L1.07278 9.09822Z" fill="url(#paint14_linear_251_10113)"/>
<path d="M0.919005 9.64638C0.919154 9.45417 0.971185 9.2654 1.06985 9.09909L0.275917 8.65002C0.0952143 8.95265 0 9.2967 0 9.64702C0 9.99735 0.0952143 10.3414 0.275917 10.644L1.06985 10.1917C0.971521 10.026 0.919502 9.83793 0.919005 9.64638Z" fill="#EC6608"/>
<path d="M21.7755 7.64885C21.2428 7.64862 20.7313 7.85256 20.351 8.21681L18.8194 7.35356C18.8861 7.10445 18.9018 6.8449 18.8655 6.58985C18.8291 6.3348 18.7415 6.08929 18.6077 5.86743L17.8137 6.3165C17.9125 6.48289 17.9645 6.67179 17.9645 6.86411C17.9645 7.05642 17.9125 7.24533 17.8137 7.41171L20.8049 9.09815C20.9032 8.93176 21.0446 8.79357 21.2149 8.69749C21.3852 8.60141 21.5784 8.55083 21.7751 8.55083C21.9718 8.55083 22.1651 8.60141 22.3354 8.69749C22.5057 8.79357 22.6471 8.93176 22.7454 9.09815L23.5393 8.64908C23.3609 8.34602 23.104 8.09409 22.7944 7.91854C22.4848 7.74299 22.1334 7.64998 21.7755 7.64885Z" fill="url(#paint15_linear_251_10113)"/>
<path d="M22.899 9.64669C22.8992 9.83866 22.8474 10.0273 22.7488 10.1933L23.5427 10.6424C23.7234 10.3399 23.8187 9.99595 23.8187 9.64572C23.8187 9.2955 23.7234 8.95155 23.5427 8.64905L22.7488 9.09812C22.8478 9.26473 22.8996 9.45406 22.899 9.64669Z" fill="#76B82A"/>
<path d="M18.6061 5.86502L17.8122 6.31409C17.7138 6.14785 17.5725 6.00981 17.4022 5.91383C17.2319 5.81786 17.0388 5.76734 16.8423 5.76734C16.6457 5.76734 16.4526 5.81786 16.2823 5.91383C16.112 6.00981 15.9707 6.14785 15.8723 6.31409L15.0784 5.86502C15.2571 5.56184 15.5144 5.31 15.8245 5.13488C16.1345 4.95976 16.4864 4.86756 16.8446 4.86756C17.2028 4.86756 17.5546 4.95976 17.8647 5.13488C18.1748 5.31 18.4321 5.56184 18.6107 5.86502H18.6061ZM13.032 4.08167C13.0321 4.2734 12.9803 4.46175 12.8818 4.62766L13.6758 5.07673C13.8565 4.77422 13.9517 4.43028 13.9517 4.08005C13.9517 3.72983 13.8565 3.38588 13.6758 3.08337L12.8818 3.53567C12.9804 3.70152 13.0322 3.88991 13.032 4.08167Z" fill="url(#paint16_linear_251_10113)"/>
<path d="M17.8103 24.102C17.9093 23.9358 17.9614 23.747 17.9614 23.5547C17.9614 23.3625 17.9093 23.1736 17.8103 23.0074L18.6042 22.5551C18.7853 22.8576 18.8808 23.2017 18.8808 23.5521C18.8808 23.9025 18.7853 24.2466 18.6042 24.5491L17.8103 24.102ZM23.5405 21.7688L22.7466 21.3197C22.6484 21.4864 22.507 21.6249 22.3365 21.7212C22.166 21.8174 21.9726 21.8681 21.7757 21.8681C21.5788 21.8681 21.3853 21.8174 21.2149 21.7212C21.0444 21.6249 20.903 21.4864 20.8048 21.3197L20.0108 21.772C20.1895 22.0753 20.447 22.3273 20.7571 22.5025C21.0673 22.6777 21.4193 22.7699 21.7777 22.7699C22.136 22.7699 22.488 22.6777 22.7982 22.5025C23.1084 22.3273 23.3658 22.0753 23.5445 21.772L23.5405 21.7688Z" fill="url(#paint17_linear_251_10113)"/>
<path d="M22.8965 20.7717C22.8963 20.9639 22.8443 21.1526 22.7456 21.3189L23.5395 21.768C23.7203 21.4655 23.8155 21.1216 23.8155 20.7713C23.8155 20.4211 23.7203 20.0772 23.5395 19.7747L22.7456 20.2237C22.8446 20.3901 22.8967 20.5792 22.8965 20.7717Z" fill="#0090D7"/>
<path d="M0.274895 21.7712L1.06883 21.3221C1.16725 21.4881 1.3086 21.6258 1.47871 21.7216C1.64883 21.8174 1.84174 21.8678 2.03809 21.8678C2.23445 21.8678 2.42736 21.8174 2.59747 21.7216C2.76759 21.6258 2.90894 21.4881 3.00736 21.3221L3.80129 21.7712C3.62241 22.0739 3.36507 22.3253 3.05515 22.5001C2.74523 22.6749 2.39366 22.7669 2.03578 22.7669C1.6779 22.7669 1.32632 22.6749 1.01641 22.5001C0.706487 22.3253 0.449149 22.0739 0.270264 21.7712H0.274895ZM5.8523 23.5539C5.852 23.3625 5.90335 23.1744 6.00116 23.0086L5.20722 22.5595C5.02671 22.8621 4.9316 23.206 4.9316 23.5562C4.9316 23.9064 5.02671 24.2503 5.20722 24.5529L6.00116 24.1006C5.9028 23.9344 5.85122 23.7458 5.85163 23.5539H5.8523Z" fill="url(#paint18_linear_251_10113)"/>
<path d="M0.920032 20.7718C0.91972 20.5803 0.971309 20.3921 1.06956 20.2264L0.27562 19.7773C0.0951071 20.0799 0 20.4238 0 20.774C0 21.1242 0.0951071 21.4681 0.27562 21.7707L1.06956 21.3216C0.970753 21.1545 0.919154 20.9647 0.920032 20.7718Z" fill="url(#paint19_linear_251_10113)"/>
<path d="M23.2999 31.5386H12.4607V26.6467L15.4141 24.9803C15.6363 25.1927 15.9052 25.3527 16.2005 25.448C16.4957 25.5432 16.8093 25.5712 17.1173 25.5298C17.4253 25.4884 17.7195 25.3787 17.9774 25.209C18.2353 25.0394 18.45 24.8144 18.6051 24.5512L17.8111 24.0989C17.7381 24.2245 17.6404 24.3347 17.5236 24.4231C17.4067 24.5116 17.2732 24.5767 17.1305 24.6145C16.9878 24.6524 16.8389 24.6623 16.6923 24.6437C16.5457 24.6251 16.4043 24.5783 16.2763 24.5061C16.1482 24.434 16.0361 24.3377 15.9463 24.223C15.8565 24.1083 15.7909 23.9774 15.7531 23.8378C15.7153 23.6983 15.7062 23.5527 15.7263 23.4097C15.7463 23.2667 15.7952 23.1289 15.87 23.0044L15.076 22.5553C14.9428 22.7774 14.8557 23.023 14.8197 23.278C14.7837 23.533 14.7995 23.7924 14.8663 24.0414L12.4633 25.3983V22.6923C12.9752 22.5504 13.4105 22.2197 13.6774 21.7702L12.8834 21.3212C12.7853 21.4879 12.6438 21.6263 12.4733 21.7226C12.3029 21.8189 12.1094 21.8696 11.9125 21.8696C11.7156 21.8696 11.5222 21.8189 11.3517 21.7226C11.1813 21.6263 11.0398 21.4879 10.9416 21.3212L10.1477 21.7702C10.4147 22.2199 10.8503 22.5505 11.3624 22.6923V25.3996L8.95942 24.0427C9.00214 23.8825 9.02436 23.7178 9.02558 23.5523C9.02546 23.203 8.93073 22.8599 8.75101 22.5579L7.95708 23.007C8.10579 23.2584 8.14615 23.5571 8.06928 23.8376C7.99242 24.1181 7.80462 24.3572 7.54721 24.5025C7.28979 24.6477 6.98384 24.6871 6.69667 24.612C6.40949 24.537 6.16461 24.3536 6.0159 24.1022L5.22197 24.5545C5.37771 24.8154 5.59223 25.0382 5.84925 25.2061C6.10628 25.374 6.39907 25.4825 6.70542 25.5235C7.01178 25.5645 7.32367 25.5368 7.61745 25.4426C7.91123 25.3483 8.17919 25.19 8.40102 24.9796L11.3558 26.6467V31.5386H0.515247C0.41751 31.5386 0.323776 31.5766 0.254665 31.644C0.185554 31.7115 0.146729 31.8031 0.146729 31.8985C0.146729 31.994 0.185554 32.0855 0.254665 32.153C0.323776 32.2205 0.41751 32.2584 0.515247 32.2584H11.3353C11.2638 32.6868 11.0474 33.0795 10.7206 33.3737C10.02 34.0153 8.77417 34.2983 7.11749 34.1923C6.44055 34.1418 5.75974 34.1794 5.09295 34.3041C5.05892 34.3044 5.02525 34.311 4.99371 34.3235L4.98511 34.3274C3.0876 34.7442 2.33865 35.9195 2.20104 36.7123C2.18917 36.7828 2.20639 36.855 2.24892 36.9131C2.29145 36.9713 2.35583 37.0106 2.42797 37.0225C2.44328 37.025 2.45877 37.0263 2.47428 37.0263C2.53957 37.0261 2.60269 37.0034 2.65245 36.9621C2.70222 36.9209 2.73543 36.8637 2.74621 36.8008C2.75679 36.742 2.92352 35.8575 3.98673 35.2578C3.89345 35.5163 3.86897 35.8006 3.84515 36.0888C3.81141 36.5017 3.77237 36.9695 3.51765 37.4806C3.49965 37.5126 3.48851 37.548 3.4849 37.5844C3.4813 37.6208 3.48531 37.6575 3.49668 37.6924C3.50806 37.7272 3.52656 37.7595 3.55107 37.7871C3.57559 37.8148 3.6056 37.8373 3.63929 37.8533C3.67297 37.8693 3.70964 37.8784 3.74705 37.8801C3.78446 37.8819 3.82185 37.8762 3.85694 37.8634C3.89203 37.8506 3.92409 37.831 3.95118 37.8057C3.97826 37.7804 3.99981 37.7501 4.01452 37.7164C4.31489 37.1142 4.35922 36.5695 4.39561 36.1321C4.44986 35.4782 4.47964 35.1163 5.18558 34.8294C5.45694 34.7764 5.73171 34.7416 6.00796 34.7254C5.6884 35.1086 5.61761 35.6378 5.54483 36.1863C5.44162 36.9772 5.31327 37.9607 4.45449 38.9544C4.43095 38.9818 4.41315 39.0134 4.40212 39.0475C4.39109 39.0816 4.38704 39.1174 4.39021 39.1531C4.39337 39.1887 4.40369 39.2233 4.42056 39.255C4.43744 39.2868 4.46055 39.3149 4.48857 39.3379C4.51659 39.3609 4.54897 39.3783 4.58387 39.3891C4.61877 39.3998 4.6555 39.4038 4.69196 39.4007C4.72842 39.3976 4.7639 39.3875 4.79638 39.371C4.82886 39.3546 4.85769 39.332 4.88124 39.3046C5.84587 38.19 5.98613 37.1181 6.09794 36.2568C6.22166 35.3095 6.31297 34.8805 7.12013 34.7345C8.93891 34.8437 10.2774 34.5206 11.0991 33.7685C11.1837 33.6894 11.2631 33.605 11.3366 33.5158C11.1103 34.1575 10.6459 34.8863 9.69116 35.672C9.20203 36.0685 8.67722 36.421 8.12314 36.7252C7.26701 37.2195 6.6484 37.5768 6.42478 38.8149C6.41209 38.8854 6.42858 38.9579 6.47064 39.0166C6.5127 39.0752 6.57687 39.1151 6.64907 39.1276C6.66497 39.1307 6.68115 39.1322 6.69736 39.1321C6.76229 39.132 6.82508 39.1095 6.87469 39.0686C6.92431 39.0277 6.95757 38.971 6.96863 38.9085C7.14792 37.9148 7.59451 37.6576 8.40367 37.1898L8.63788 37.0541C8.45593 37.4748 8.36397 37.8941 8.27796 38.2818C8.07947 39.1864 7.9101 39.9618 6.82241 40.6609C6.77234 40.6926 6.73412 40.7392 6.7135 40.7939C6.69288 40.8486 6.69096 40.9083 6.70802 40.9641C6.72509 41.02 6.76023 41.0689 6.80817 41.1036C6.8561 41.1382 6.91426 41.1568 6.97392 41.1565C7.02747 41.1562 7.07982 41.141 7.12477 41.1125C8.40565 40.2926 8.6167 39.3272 8.82114 38.3949C8.8443 38.2876 8.86746 38.1823 8.8926 38.0763C8.95082 38.3626 9.03551 38.6443 9.11755 38.9163C9.29949 39.5179 9.48739 40.1401 9.38219 40.7255C9.3695 40.796 9.38599 40.8686 9.42805 40.9272C9.47011 40.9859 9.53429 41.0258 9.60648 41.0382C9.62245 41.0408 9.6386 41.0421 9.65478 41.0421C9.71972 41.0422 9.78259 41.0198 9.83233 40.979C9.88207 40.9383 9.91549 40.8817 9.9267 40.8192C10.0544 40.1084 9.84797 39.4242 9.64816 38.7619C9.34316 37.7519 9.07983 36.8797 10.0511 36.0791C10.8649 35.4077 11.3564 34.7642 11.6535 34.1743C11.7157 34.8805 11.7997 35.5021 11.8857 36.061C12.0842 37.3429 11.7534 37.7364 11.3789 38.1933C11.0045 38.6501 10.5724 39.1664 10.6512 40.4819C10.6554 40.5506 10.6863 40.6151 10.7375 40.6623C10.7888 40.7095 10.8566 40.7358 10.9271 40.7358H10.9436C11.0168 40.7315 11.0852 40.699 11.1338 40.6455C11.1824 40.5919 11.2073 40.5217 11.203 40.4502C11.1368 39.344 11.4603 38.9499 11.8057 38.5331C11.9441 38.3749 12.0693 38.2062 12.1802 38.0285C12.3495 39.5146 12.194 40.657 10.8569 42.4908C10.8145 42.549 10.7974 42.6214 10.8096 42.6919C10.8218 42.7624 10.8621 42.8254 10.9218 42.8668C10.9814 42.9083 11.0555 42.9249 11.1277 42.913C11.1999 42.9012 11.2644 42.8618 11.3068 42.8035C13.1249 40.3081 12.904 38.9415 12.5381 36.6794C12.4164 35.9279 12.2734 35.0608 12.1888 34.0037C12.4918 34.6207 12.904 35.0834 13.2897 35.5137C14.2636 36.6005 15.1045 37.5387 13.8686 40.6745C13.8423 40.7412 13.8441 40.8154 13.8738 40.8809C13.9034 40.9463 13.9584 40.9975 14.0267 41.0234C14.0584 41.0351 14.092 41.0413 14.126 41.0415C14.1819 41.0415 14.2366 41.025 14.2828 40.994C14.329 40.9631 14.3645 40.9193 14.3847 40.8683C15.0231 39.2491 15.1316 38.1364 14.9636 37.2951C15.3433 37.7784 15.5921 38.4343 15.4578 39.6716C15.4538 39.7069 15.457 39.7425 15.4672 39.7765C15.4774 39.8105 15.4943 39.8422 15.5171 39.8698C15.5398 39.8975 15.5679 39.9204 15.5997 39.9374C15.6316 39.9544 15.6665 39.9651 15.7026 39.9689H15.7324C15.8005 39.9688 15.8662 39.9441 15.9168 39.8997C15.9675 39.8552 15.9996 39.794 16.0069 39.7279C16.0521 39.3451 16.0569 38.9589 16.0215 38.5751C16.3754 38.9299 16.7625 39.26 17.0847 39.4377C17.1486 39.4727 17.2241 39.4814 17.2946 39.4622C17.3652 39.4429 17.425 39.3972 17.4612 39.335C17.479 39.3041 17.4905 39.2701 17.4949 39.2349C17.4993 39.1997 17.4965 39.164 17.4867 39.1298C17.477 39.0957 17.4604 39.0637 17.4379 39.0359C17.4155 39.008 17.3876 38.9847 17.356 38.9673C16.7817 38.6514 15.8773 37.6751 15.5696 37.2001C15.5653 37.1933 15.5604 37.1868 15.555 37.1808C15.3222 36.8247 15.037 36.5592 14.7611 36.3085C14.5592 36.1318 14.3718 35.94 14.2007 35.7347C14.1981 35.7317 14.1952 35.7289 14.1921 35.7263C14.0347 35.5286 13.8679 35.3386 13.7019 35.1564C13.3003 34.7086 12.8914 34.2518 12.6162 33.6231C13.203 34.1245 14.0975 34.3112 15.0569 34.4166H15.0661C16.4198 34.5619 16.615 35.515 16.8412 36.6199C16.9358 37.0806 17.0338 37.5588 17.2283 37.9768C17.2588 38.0418 17.3145 38.0924 17.3832 38.1173C17.4519 38.1422 17.5279 38.1394 17.5945 38.1096C17.6611 38.0798 17.7128 38.0253 17.7383 37.9583C17.7638 37.8912 17.761 37.817 17.7304 37.7519C17.563 37.394 17.4757 36.9675 17.3831 36.5165C17.3315 36.2665 17.2779 36.0106 17.2091 35.7592C17.442 35.8768 17.6841 35.9731 17.9249 36.0675C18.5588 36.3162 19.1059 36.5307 19.3395 37.0858C19.3603 37.1354 19.3957 37.1778 19.4413 37.2076C19.487 37.2374 19.5406 37.2533 19.5955 37.2531C19.6312 37.2532 19.6665 37.2464 19.6994 37.2331C19.7672 37.2059 19.8211 37.1535 19.8494 37.0875C19.8777 37.0215 19.878 36.9472 19.8502 36.8809C19.5287 36.1146 18.8175 35.8355 18.13 35.566C17.5809 35.3509 17.0629 35.1473 16.7314 34.7099C16.6904 34.6556 16.646 34.6026 16.5991 34.5516C18.3332 34.706 19.9984 34.9981 20.4622 36.6671C20.4778 36.7241 20.5121 36.7746 20.5599 36.8107C20.6078 36.8467 20.6664 36.8665 20.7269 36.8667C20.7515 36.8666 20.7759 36.8633 20.7997 36.857C20.8702 36.838 20.9303 36.7925 20.9666 36.7303C21.0029 36.6682 21.0126 36.5946 20.9935 36.5256C20.3789 34.3099 18.0937 34.1277 16.0777 33.9662C14.0089 33.8008 12.6823 33.6186 12.4918 32.2546H23.2999C23.3976 32.2546 23.4914 32.2166 23.5605 32.1491C23.6296 32.0817 23.6684 31.9901 23.6684 31.8947C23.6684 31.7992 23.6296 31.7077 23.5605 31.6402C23.4914 31.5727 23.3976 31.5348 23.2999 31.5348V31.5386Z" fill="#213A8F"/>
<path d="M34.622 13.5716V17.3129H34.1691V13.5716H32.9404V13.1775H35.85V13.5723L34.622 13.5716Z" fill="black"/>
<path d="M36.9103 17.3129V13.1775H39.5454V13.5723H37.3638V15.03H39.2204V15.4255H37.3638V16.9187H39.5454V17.3129H36.9103Z" fill="black"/>
<path d="M43.1412 17.3129V13.5716H41.1321V17.3129H40.6792V13.1775H43.5968V17.3129H43.1412Z" fill="black"/>
<path d="M47.5056 17.3129V13.5716H46.0628V14.9867C46.0628 16.7314 45.6337 17.3129 44.8228 17.3129H44.6106V16.9181H44.724C45.2485 16.9181 45.6238 16.5756 45.6238 14.8556V13.1775H47.9605V17.3129H47.5056Z" fill="black"/>
<path d="M51.9337 17.3129V13.9374L49.7753 17.3129H49.3463V13.1775H49.7992V16.5466L51.9575 13.1775H52.3865V17.3129H51.9337Z" fill="black"/>
<path d="M56.7489 18.3125V17.3129H53.7744V13.1775H54.2253V16.9187H56.2344V13.1775H56.6873V16.9187H57.1945V18.3132L56.7489 18.3125Z" fill="black"/>
<path d="M61.0424 17.3129L60.7029 16.3779H58.8462L58.5087 17.3129H58.026L59.5882 13.1775H59.9695L61.5251 17.3129H61.0424ZM59.7825 13.8101L58.9868 15.9941H60.5729L59.7825 13.8101Z" fill="black"/>
<path d="M34.6943 24.6888C34.4932 24.6911 34.2937 24.6543 34.1074 24.5805C33.9211 24.5067 33.7519 24.3975 33.6095 24.2591C33.2116 23.8714 33.2116 23.463 33.2116 22.5862C33.2116 21.7094 33.2116 21.3016 33.6095 20.9127C33.752 20.7744 33.9213 20.6652 34.1075 20.5915C34.2938 20.5177 34.4932 20.4808 34.6943 20.483C35.4575 20.483 36.0204 20.9353 36.167 21.7145H35.7028C35.5894 21.2086 35.2254 20.8745 34.6949 20.8745C34.559 20.8731 34.4241 20.898 34.2982 20.9479C34.1723 20.9979 34.0578 21.0718 33.9616 21.1653C33.6963 21.4322 33.6638 21.7171 33.6638 22.583C33.6638 23.4488 33.6937 23.7325 33.9616 24C34.0578 24.0935 34.1723 24.1674 34.2982 24.2174C34.4241 24.2673 34.559 24.2922 34.6949 24.2908C35.2254 24.2908 35.6014 23.9593 35.7147 23.454H36.1676C36.0297 24.2358 35.4515 24.6888 34.6943 24.6888Z" fill="black"/>
<path d="M40.2144 22.5862C40.2144 23.4107 40.2018 23.8785 39.8165 24.2591C39.5261 24.5347 39.1368 24.6888 38.7314 24.6888C38.3261 24.6888 37.9367 24.5347 37.6463 24.2591C37.2591 23.8818 37.2484 23.4107 37.2484 22.5862V22.2631C37.2484 21.7695 37.2843 21.2635 37.6463 20.9094C37.9367 20.6339 38.3261 20.4797 38.7314 20.4797C39.1368 20.4797 39.5261 20.6339 39.8165 20.9094C40.1859 21.2693 40.2144 21.7927 40.2144 22.298V22.5862ZM39.7609 22.3652C39.7609 21.8774 39.7429 21.447 39.4631 21.1743C39.3669 21.0803 39.2526 21.0057 39.1268 20.9549C39.0009 20.904 38.866 20.8778 38.7298 20.8778C38.5935 20.8778 38.4586 20.904 38.3328 20.9549C38.2069 21.0057 38.0926 21.0803 37.9964 21.1743C37.698 21.4645 37.698 21.8948 37.698 22.4667V22.8783C37.698 23.3261 37.7219 23.7331 37.9964 24C38.0926 24.094 38.2069 24.1686 38.3328 24.2195C38.4586 24.2704 38.5935 24.2966 38.7298 24.2966C38.866 24.2966 39.0009 24.2704 39.1268 24.2195C39.2526 24.1686 39.3669 24.094 39.4631 24C39.7549 23.7157 39.7609 23.2679 39.7609 22.7917V22.3652Z" fill="black"/>
<path d="M44.4462 25.6535V24.6539H41.4709V20.5185H41.9238V24.2591H43.933V20.5172H44.3865V24.2591H44.8931V25.6535H44.4462Z" fill="black"/>
<path d="M48.5765 24.6539V21.2784L46.4182 24.6539H45.9892V20.5185H46.442V23.8882L48.5997 20.5185H49.0294V24.6539H48.5765Z" fill="black"/>
<path d="M53.0569 24.6539L52.7168 23.7189H50.8601L50.5206 24.6539H50.0373L51.5995 20.5185H51.9807L53.537 24.6539H53.0569ZM51.7971 21.1511L51.0014 23.3351H52.5875L51.7971 21.1511Z" fill="black"/>
<path d="M57.1813 24.6539V20.9127H55.7384V22.3303C55.7384 24.075 55.3094 24.6565 54.4984 24.6565H54.2836V24.2591H54.397C54.9215 24.2591 55.2975 23.9166 55.2975 22.1966V20.5166H57.6341V24.652L57.1813 24.6539Z" fill="black"/>
<path d="M60.6134 24.6539H59.022V20.5185H59.4749V22.2211H60.6134C61.4091 22.2211 61.9249 22.7096 61.9249 23.4411C61.9249 24.1725 61.4004 24.6539 60.6134 24.6539ZM60.5722 22.6146H59.4749V24.2591H60.5722C61.1385 24.2591 61.4667 23.9567 61.4667 23.4398C61.4667 22.9229 61.1385 22.6146 60.5722 22.6146Z" fill="black"/>
<path d="M65.485 24.6539V22.7658H63.4699V24.6539H63.0164V20.5185H63.4699V22.3723H65.485V20.5172H65.9379V24.6526L65.485 24.6539Z" fill="black"/>
<path d="M68.9178 24.6539H67.3264V20.5185H67.7792V22.2211H68.9184C69.7141 22.2211 70.2293 22.7096 70.2293 23.4411C70.2293 24.1725 69.7042 24.6539 68.9178 24.6539ZM67.7786 22.6146V24.2591H68.8793C69.4456 24.2591 69.7731 23.9567 69.7731 23.4398C69.7731 22.9229 69.4423 22.6146 68.8793 22.6146H67.7786ZM70.7989 24.6539V20.5185H71.2518V24.6539H70.7989Z" fill="black"/>
<path d="M74.853 24.6539L73.8212 22.917L72.7842 24.6539H72.271L73.5713 22.5339L72.3545 20.5172H72.8797L73.8212 22.15L74.7635 20.5172H75.288L74.0659 22.5339L75.3775 24.6539H74.853Z" fill="black"/>
<path d="M34.622 28.0462V31.7869H34.1691V28.0462H32.9404V27.6514H35.85V28.0462H34.622Z" fill="black"/>
<path d="M36.9103 31.7869V27.6514H39.5454V28.0462H37.3638V29.5053H39.2204V29.9001H37.3638V31.3933H39.5454V31.7869H36.9103Z" fill="black"/>
<path d="M43.0033 31.7869L41.9716 30.0506L40.9345 31.7869H40.4213L41.7216 29.6662L40.5048 27.6514H41.03L41.9716 29.2843L42.9138 27.6514H43.4383L42.2162 29.6675L43.5278 31.7869H43.0033Z" fill="black"/>
<path d="M47.0123 31.7869V29.9001H44.9972V31.7869H44.5443V27.6514H44.9972V29.5053H47.0123V27.6514H47.4652V31.7869H47.0123Z" fill="black"/>
<path d="M51.6989 29.7191C51.6989 30.5443 51.6863 31.0115 51.3011 31.3927C51.0106 31.6682 50.6213 31.8224 50.216 31.8224C49.8106 31.8224 49.4213 31.6682 49.1308 31.3927C48.7429 31.0147 48.733 30.5443 48.733 29.7191V29.3999C48.733 28.9056 48.7688 28.4003 49.1308 28.043C49.4213 27.7675 49.8106 27.6133 50.216 27.6133C50.6213 27.6133 51.0106 27.7675 51.3011 28.043C51.6704 28.4029 51.6989 28.9263 51.6989 29.4323V29.7191ZM51.2454 29.4982C51.2454 29.0103 51.2281 28.58 50.9477 28.3073C50.8515 28.2133 50.7371 28.1387 50.6113 28.0878C50.4855 28.0369 50.3505 28.0107 50.2143 28.0107C50.078 28.0107 49.9431 28.0369 49.8173 28.0878C49.6915 28.1387 49.5772 28.2133 49.4809 28.3073C49.1826 28.5974 49.1825 29.0278 49.1825 29.5996V30.0125C49.1825 30.4596 49.2064 30.8661 49.4809 31.1336C49.5772 31.2276 49.6915 31.3022 49.8173 31.3531C49.9431 31.404 50.078 31.4302 50.2143 31.4302C50.3505 31.4302 50.4855 31.404 50.6113 31.3531C50.7371 31.3022 50.8515 31.2276 50.9477 31.1336C51.2401 30.8486 51.2454 30.4008 51.2454 29.9253V29.4982Z" fill="black"/>
<path d="M55.3525 31.7869V28.0462H53.9096V29.4639C53.9096 31.2085 53.4806 31.7901 52.6697 31.7901H52.4555V31.3953H52.5682C53.0927 31.3953 53.4687 31.0522 53.4687 29.3327V27.6514H55.8054V31.7869H55.3525Z" fill="black"/>
<path d="M60.0411 29.7191C60.0411 30.5443 60.0292 31.0115 59.6433 31.3927C59.3528 31.6682 58.9635 31.8224 58.5581 31.8224C58.1528 31.8224 57.7635 31.6682 57.473 31.3927C57.0851 31.0147 57.0752 30.5443 57.0752 29.7191V29.3999C57.0752 28.9056 57.1103 28.4003 57.473 28.043C57.7635 27.7675 58.1528 27.6133 58.5581 27.6133C58.9635 27.6133 59.3528 27.7675 59.6433 28.043C60.0126 28.4029 60.0411 28.9263 60.0411 29.4323V29.7191ZM59.5882 29.4982C59.5882 29.0103 59.5703 28.58 59.2899 28.3073C59.1936 28.2133 59.0793 28.1387 58.9535 28.0878C58.8277 28.0369 58.6927 28.0107 58.5565 28.0107C58.4202 28.0107 58.2853 28.0369 58.1595 28.0878C58.0336 28.1387 57.9193 28.2133 57.8231 28.3073C57.5254 28.5974 57.5254 29.0278 57.5254 29.5996V30.0125C57.5254 30.4596 57.5493 30.8661 57.8231 31.1336C57.9193 31.2276 58.0336 31.3022 58.1595 31.3531C58.2853 31.404 58.4202 31.4302 58.5565 31.4302C58.6927 31.4302 58.8277 31.404 58.9535 31.3531C59.0793 31.3022 59.1936 31.2276 59.2899 31.1336C59.5823 30.8486 59.5882 30.4008 59.5882 29.9253V29.4982Z" fill="black"/>
<path d="M61.7784 28.0462V31.7869H61.3255V27.6514H63.877V28.0462H61.7784Z" fill="black"/>
<path d="M67.5286 31.7869V28.4126L65.3703 31.7869H64.9406V27.6514H65.3935V31.0212L67.5531 27.6514H67.9828V31.7869H67.5286Z" fill="black"/>
<path d="M71.956 31.7869V28.4126L69.7983 31.7869H69.3687V27.6514H69.8215V31.0212L71.9799 27.6514H72.4089V31.7869H71.956ZM70.8891 27.393C70.3938 27.393 70.0543 27.1785 70.0185 26.6609H70.3997C70.4236 26.9458 70.5987 27.0906 70.8891 27.0906C71.1795 27.0906 71.3532 26.9458 71.3778 26.6609H71.7597C71.7239 27.1752 71.3838 27.393 70.8891 27.393Z" fill="black"/>
<defs>
<linearGradient id="paint0_linear_251_10113" x1="3.00806" y1="9.64562" x2="10.9335" y2="9.64562" gradientUnits="userSpaceOnUse">
<stop stop-color="#EC6608"/>
<stop offset="1" stop-color="#F9B000"/>
</linearGradient>
<linearGradient id="paint1_linear_251_10113" x1="7.94653" y1="6.86278" x2="15.872" y2="6.86278" gradientUnits="userSpaceOnUse">
<stop stop-color="#FFED00"/>
<stop offset="1" stop-color="#BCCF00"/>
</linearGradient>
<linearGradient id="paint2_linear_251_10113" x1="7.94653" y1="12.7005" x2="15.872" y2="12.7005" gradientUnits="userSpaceOnUse">
<stop stop-color="#EC6608"/>
<stop offset="1" stop-color="#C8D400"/>
</linearGradient>
<linearGradient id="paint3_linear_251_10113" x1="0.273572" y1="12.4279" x2="6.00381" y2="12.4279" gradientUnits="userSpaceOnUse">
<stop stop-color="#E40428"/>
<stop offset="1" stop-color="#EC6608"/>
</linearGradient>
<linearGradient id="paint4_linear_251_10113" x1="3.00925" y1="15.2094" x2="11.9053" y2="15.2094" gradientUnits="userSpaceOnUse">
<stop stop-color="#B70E0C"/>
<stop offset="1" stop-color="#C80973"/>
</linearGradient>
<linearGradient id="paint5_linear_251_10113" x1="17.8104" y1="12.4253" x2="23.5413" y2="12.4253" gradientUnits="userSpaceOnUse">
<stop stop-color="#65B32E"/>
<stop offset="1" stop-color="#C8D400"/>
</linearGradient>
<linearGradient id="paint6_linear_251_10113" x1="11.9048" y1="15.2075" x2="20.8002" y2="15.2075" gradientUnits="userSpaceOnUse">
<stop stop-color="#0081A7"/>
<stop offset="1" stop-color="#76B82A"/>
</linearGradient>
<linearGradient id="paint7_linear_251_10113" x1="17.8117" y1="17.9898" x2="23.542" y2="17.9898" gradientUnits="userSpaceOnUse">
<stop stop-color="#76B82A"/>
<stop offset="1" stop-color="#0081A7"/>
</linearGradient>
<linearGradient id="paint8_linear_251_10113" x1="7.94521" y1="17.7172" x2="15.8713" y2="17.7172" gradientUnits="userSpaceOnUse">
<stop stop-color="#C80973"/>
<stop offset="1" stop-color="#007BC4"/>
</linearGradient>
<linearGradient id="paint9_linear_251_10113" x1="12.875" y1="20.7723" x2="20.7998" y2="20.7723" gradientUnits="userSpaceOnUse">
<stop stop-color="#213A8F"/>
<stop offset="1" stop-color="#009FE3"/>
</linearGradient>
<linearGradient id="paint10_linear_251_10113" x1="5.21355" y1="22.2837" x2="8.75054" y2="22.2837" gradientUnits="userSpaceOnUse">
<stop stop-color="#831F82"/>
<stop offset="1" stop-color="#5C2483"/>
</linearGradient>
<linearGradient id="paint11_linear_251_10113" x1="363.677" y1="922.339" x2="1312.67" y2="922.339" gradientUnits="userSpaceOnUse">
<stop stop-color="#831F82"/>
<stop offset="1" stop-color="#5C2483"/>
</linearGradient>
<linearGradient id="paint12_linear_251_10113" x1="12.8779" y1="9.64354" x2="20.804" y2="9.64354" gradientUnits="userSpaceOnUse">
<stop stop-color="#C8D400"/>
<stop offset="1" stop-color="#65B32E"/>
</linearGradient>
<linearGradient id="paint13_linear_251_10113" x1="5.21289" y1="4.69999" x2="10.9431" y2="4.69999" gradientUnits="userSpaceOnUse">
<stop stop-color="#FDC300"/>
<stop offset="1" stop-color="#FFD500"/>
</linearGradient>
<linearGradient id="paint14_linear_251_10113" x1="0.276855" y1="7.48222" x2="6.00643" y2="7.48222" gradientUnits="userSpaceOnUse">
<stop stop-color="#EF7D00"/>
<stop offset="1" stop-color="#FFD500"/>
</linearGradient>
<linearGradient id="paint15_linear_251_10113" x1="17.8117" y1="7.48021" x2="23.5413" y2="7.48021" gradientUnits="userSpaceOnUse">
<stop stop-color="#BCCF00"/>
<stop offset="1" stop-color="#FFED00"/>
</linearGradient>
<linearGradient id="paint16_linear_251_10113" x1="12.8772" y1="4.69873" x2="18.6061" y2="4.69873" gradientUnits="userSpaceOnUse">
<stop stop-color="#C8D400"/>
<stop offset="1" stop-color="#A2C617"/>
</linearGradient>
<linearGradient id="paint17_linear_251_10113" x1="1561.57" y1="1063.36" x2="2058.21" y2="1063.36" gradientUnits="userSpaceOnUse">
<stop stop-color="#213A8F"/>
<stop offset="1" stop-color="#009FE3"/>
</linearGradient>
<linearGradient id="paint18_linear_251_10113" x1="0.274895" y1="22.9375" x2="6.00447" y2="22.9375" gradientUnits="userSpaceOnUse">
<stop stop-color="#E50071"/>
<stop offset="1" stop-color="#831F82"/>
</linearGradient>
<linearGradient id="paint19_linear_251_10113" x1="-3.6848" y1="20.7743" x2="3.94824" y2="20.7743" gradientUnits="userSpaceOnUse">
<stop stop-color="#E94190"/>
<stop offset="1" stop-color="#A71680"/>
</linearGradient>
</defs>
</svg>
