<svg width="20" height="20" viewBox="0 0 20 20" fill="none" xmlns="http://www.w3.org/2000/svg">
<path d="M8.68359 5.28333H15.4836" stroke="white" stroke-width="1.5" stroke-linecap="round" stroke-linejoin="round"/>
<path d="M8.68359 9.68335H15.4836" stroke="white" stroke-width="1.5" stroke-linecap="round" stroke-linejoin="round"/>
<path d="M8.68359 14.1833H15.4836" stroke="white" stroke-width="1.5" stroke-linecap="round" stroke-linejoin="round"/>
<path d="M5.28333 5C5.12685 5 5 5.12685 5 5.28333C5 5.43981 5.12685 5.56667 5.28333 5.56667C5.43981 5.56667 5.56667 5.43981 5.56667 5.28333C5.56667 5.12685 5.43981 5 5.28333 5" stroke="white" stroke-width="1.5" stroke-linecap="round" stroke-linejoin="round"/>
<path d="M5.28333 9.40002C5.12685 9.40002 5 9.52688 5 9.68336C5 9.83984 5.12685 9.96669 5.28333 9.96669C5.43981 9.96669 5.56667 9.83984 5.56667 9.68336C5.56667 9.52688 5.43981 9.40002 5.28333 9.40002" stroke="white" stroke-width="1.5" stroke-linecap="round" stroke-linejoin="round"/>
<path d="M5.28333 13.9C5.12685 13.9 5 14.0269 5 14.1834C5 14.3398 5.12685 14.4667 5.28333 14.4667C5.43981 14.4667 5.56667 14.3398 5.56667 14.1834C5.56667 14.0269 5.43981 13.9 5.28333 13.9" stroke="white" stroke-width="1.5" stroke-linecap="round" stroke-linejoin="round"/>
</svg>
