<svg viewBox="0 0 20 20" xmlns="http://www.w3.org/2000/svg">
<path fill-rule="evenodd" clip-rule="evenodd" d="M4.95 0C3.88783 0 3 0.847355 3 1.9253V3.77992C3 6.3469 4.48222 8.5614 6.64174 9.66304C4.47797 10.7875 3 13.0493 3 15.6564V17.55C3 18.6269 3.87304 19.5 4.95 19.5H14.55C15.1796 19.5 15.7396 19.2016 16.0961 18.7385C16.0986 18.7372 16.101 18.7359 16.1035 18.7346C16.4186 18.5661 16.5644 18.2048 16.4732 17.8742C16.4908 17.7688 16.5 17.6604 16.5 17.55V15.6564C16.5 13.0493 15.022 10.7875 12.8583 9.66304C15.0178 8.5614 16.5 6.3469 16.5 3.77992V1.9253C16.5 0.847355 15.6122 0 14.55 0H4.95ZM15 15.7281V15.6564C15 12.7614 12.6569 10.4137 9.76362 10.4064L9.75 10.4064L9.73638 10.4064C6.84315 10.4137 4.5 12.7614 4.5 15.6564V16.0705C5.82274 14.4819 7.71805 13.2271 9.89942 13.2271C11.9215 13.2271 13.6978 14.3053 15 15.7281ZM9.76368 8.90639C12.6716 8.89917 15 6.59216 15 3.77992V1.9253C15 1.70504 14.8133 1.5 14.55 1.5H4.95C4.68669 1.5 4.5 1.70504 4.5 1.9253V3.77992C4.5 6.59216 6.82842 8.89917 9.73632 8.90639L9.75 8.90637L9.76368 8.90639Z"/>
</svg>

