<svg viewBox="0 0 13 16" xmlns="http://www.w3.org/2000/svg">
<path fill-rule="evenodd" clip-rule="evenodd" d="M2.34961 4.08833C2.34961 1.85158 4.16286 0.0383301 6.39961 0.0383301C8.63637 0.0383301 10.4496 1.85158 10.4496 4.08833C10.4496 6.32509 8.63637 8.13833 6.39961 8.13833C4.16286 8.13833 2.34961 6.32509 2.34961 4.08833ZM6.39961 1.53833C4.99128 1.53833 3.84961 2.68001 3.84961 4.08833C3.84961 5.49666 4.99128 6.63833 6.39961 6.63833C7.80794 6.63833 8.94961 5.49666 8.94961 4.08833C8.94961 2.68001 7.80794 1.53833 6.39961 1.53833ZM1.77825 14.4618H11.0218C10.7653 12.1362 8.79389 10.3273 6.4 10.3273C4.00611 10.3273 2.03472 12.1362 1.77825 14.4618ZM12.5409 15.0945C12.5469 15.0563 12.55 15.0171 12.55 14.9773C12.55 11.5807 9.79655 8.82727 6.4 8.82727C3.00345 8.82727 0.25 11.5807 0.25 14.9773C0.25 15.0172 0.253114 15.0563 0.259113 15.0945C0.253114 15.1327 0.25 15.1719 0.25 15.2118C0.25 15.626 0.585786 15.9618 1 15.9618H11.8C12.2142 15.9618 12.55 15.626 12.55 15.2118C12.55 15.1719 12.5469 15.1327 12.5409 15.0945Z"/>
</svg>
