<svg viewBox="0 0 19 18" xmlns="http://www.w3.org/2000/svg">
<path fill-rule="evenodd" clip-rule="evenodd" d="M12.2535 0.53091C8.36848 -0.480325 4.29668 1.30306 2.40551 4.84416C2.21038 5.20954 2.34839 5.66391 2.71376 5.85905C3.07913 6.05418 3.53351 5.91617 3.72864 5.5508C5.29316 2.62132 8.66166 1.14597 11.8756 1.98254C15.0896 2.81911 17.3114 5.74955 17.2491 9.07004C17.1868 12.3905 14.8567 15.2356 11.6136 15.951C8.37051 16.6665 5.05971 15.0658 3.60616 12.0797C3.42487 11.7073 2.97599 11.5523 2.60356 11.7336C2.23112 11.9149 2.07617 12.3638 2.25746 12.7362C4.01449 16.3458 8.01654 18.2806 11.9367 17.4158C15.857 16.551 18.6735 13.1119 18.7488 9.09817C18.8241 5.08441 16.1385 1.54214 12.2535 0.53091ZM9.53803 5.57074C9.83092 5.27785 10.3058 5.27785 10.5987 5.57074L13.4324 8.40446C13.5731 8.54512 13.6521 8.73588 13.6521 8.93479C13.6521 9.13371 13.5731 9.32447 13.4324 9.46512L10.5987 12.2988C10.3058 12.5917 9.83092 12.5917 9.53803 12.2988C9.24514 12.006 9.24514 11.5311 9.53803 11.2382L11.0914 9.68481H1C0.585786 9.68481 0.25 9.34903 0.25 8.93481C0.25 8.5206 0.585786 8.18481 1 8.18481H11.0914L9.53803 6.6314C9.24514 6.33851 9.24514 5.86364 9.53803 5.57074Z"/>
</svg>
