<svg viewBox="0 0 20 20" xmlns="http://www.w3.org/2000/svg">
<path fill-rule="evenodd" clip-rule="evenodd" d="M2.50195 0.665405C1.53545 0.665405 0.751953 1.44891 0.751953 2.41541V9.10057C0.751953 10.0671 1.53545 10.8506 2.50195 10.8506H7.86861C8.8351 10.8506 9.61861 10.0671 9.61861 9.10057V2.41541C9.61861 1.44891 8.8351 0.665405 7.86861 0.665405H2.50195ZM2.25195 2.41541C2.25195 2.27733 2.36388 2.16541 2.50195 2.16541H7.86861C8.00668 2.16541 8.11861 2.27733 8.11861 2.41541V9.10057C8.11861 9.23864 8.00668 9.35057 7.86861 9.35057H2.50195C2.36388 9.35057 2.25195 9.23864 2.25195 9.10057V2.41541ZM17.498 19.3346C18.4645 19.3346 19.248 18.5511 19.248 17.5846V9.95132C19.248 8.98483 18.4645 8.20132 17.498 8.20132L12.1314 8.20132C11.1649 8.20132 10.3814 8.98483 10.3814 9.95132L10.3814 17.5846C10.3814 18.5511 11.1649 19.3346 12.1314 19.3346H17.498ZM17.748 17.5846C17.748 17.7227 17.6361 17.8346 17.498 17.8346H12.1314C11.9933 17.8346 11.8814 17.7227 11.8814 17.5846L11.8814 9.95132C11.8814 9.81325 11.9933 9.70132 12.1314 9.70132L17.498 9.70132C17.6361 9.70132 17.748 9.81325 17.748 9.95132V17.5846ZM0.751953 14.4846C0.751953 13.5181 1.53545 12.7346 2.50195 12.7346H7.86861C8.8351 12.7346 9.61861 13.5181 9.61861 14.4846V17.5846C9.61861 18.5511 8.8351 19.3346 7.86861 19.3346H2.50195C1.53546 19.3346 0.751953 18.5511 0.751953 17.5846V14.4846ZM2.50195 14.2346C2.36388 14.2346 2.25195 14.3465 2.25195 14.4846V17.5846C2.25195 17.7226 2.36388 17.8346 2.50195 17.8346H7.86861C8.00668 17.8346 8.11861 17.7226 8.11861 17.5846V14.4846C8.11861 14.3465 8.00668 14.2346 7.86861 14.2346H2.50195ZM17.498 7.26538C18.4645 7.26538 19.248 6.48188 19.248 5.51538V2.41542C19.248 1.44892 18.4645 0.665421 17.498 0.665421L12.1314 0.665421C11.1649 0.665421 10.3814 1.44892 10.3814 2.41542V5.51538C10.3814 6.48188 11.1649 7.26538 12.1314 7.26538L17.498 7.26538ZM17.748 5.51538C17.748 5.65345 17.6361 5.76538 17.498 5.76538L12.1314 5.76538C11.9933 5.76538 11.8814 5.65345 11.8814 5.51538V2.41542C11.8814 2.27735 11.9933 2.16542 12.1314 2.16542L17.498 2.16542C17.6361 2.16542 17.748 2.27735 17.748 2.41542V5.51538Z"/>
</svg>
