<svg xmlns="http://www.w3.org/2000/svg" viewBox="0 0 20 20">
<path d="M18.297,2.103l-0.802-0.803c-0.734-0.733-1.928-0.733-2.662,0l-2.806,2.803c-0.003,0.003-0.004,0.007-0.007,0.01l-4.8,4.799
	C7.125,9.01,7.057,9.131,7.024,9.262l-0.801,3.206c-0.064,0.256,0.011,0.525,0.197,0.712c0.143,0.143,0.334,0.22,0.53,0.22
	c0.061,0,0.122-0.008,0.182-0.022l3.205-0.802c0.132-0.033,0.252-0.102,0.348-0.197l4.808-4.808
	c0.001-0.001,0.001-0.002,0.002-0.003l2.802-2.801C19.032,4.031,19.032,2.837,18.297,2.103z M9.772,11.171l-1.791,0.447l0.447-1.791
	l4.131-4.131l1.343,1.343L9.772,11.171z M17.237,3.705l-2.274,2.273l-1.344-1.344l2.275-2.273c0.15-0.15,0.394-0.147,0.542,0
	l0.801,0.802C17.386,3.313,17.386,3.556,17.237,3.705z M16.251,11.699v5.666c0,1.039-0.845,1.884-1.884,1.884H3.035
	c-1.039,0-1.883-0.845-1.883-1.884V6.033c0-1.039,0.845-1.883,1.883-1.883h5.667c0.414,0,0.75,0.336,0.75,0.75
	s-0.336,0.75-0.75,0.75H3.035c-0.211,0-0.383,0.172-0.383,0.383v11.333c0,0.212,0.172,0.384,0.383,0.384h11.333
	c0.212,0,0.384-0.172,0.384-0.384v-5.666c0-0.414,0.336-0.75,0.75-0.75S16.251,11.285,16.251,11.699z"/>
</svg>
