<svg width="20" height="20" viewBox="0 0 20 20" xmlns="http://www.w3.org/2000/svg">
<path fill-rule="evenodd" clip-rule="evenodd" d="M14.3938 0.0423566C14.1437 0.180333 14.118 0.236953 13.6039 1.78103L13.1052 3.27879L10.3207 5.13508C8.78917 6.15605 7.52687 6.99141 7.5155 6.99141C7.50417 6.99141 7.37886 6.89571 7.23705 6.77872C6.70707 6.34154 6.08186 6.1226 5.36736 6.12389C4.51161 6.12545 3.89038 6.39394 3.18651 7.06643C2.74469 7.48853 2.64618 7.72646 2.79212 8.01909C2.82643 8.08787 3.77151 9.06292 4.89232 10.1859L6.93015 12.2276L3.52467 15.6369C1.65166 17.512 0.0911 19.1025 0.0568307 19.1713C-0.181179 19.6486 0.349429 20.1792 0.826776 19.9412C0.895549 19.9069 2.486 18.3464 4.36113 16.4734L7.77047 13.0679L9.81217 15.1057C10.9351 16.2265 11.9102 17.1716 11.979 17.2059C12.2696 17.3509 12.5117 17.2523 12.9197 16.8229C13.2679 16.4563 13.4061 16.2684 13.5797 15.9255C13.7872 15.5156 13.8734 15.1357 13.8734 14.6307C13.8734 13.9303 13.6859 13.3705 13.2725 12.8369C13.1585 12.6897 13.0498 12.5485 13.031 12.5229C13.0082 12.4921 13.6185 11.5441 14.8546 9.68993L16.7125 6.90325L18.2026 6.40512C19.236 6.05969 19.7232 5.87853 19.7921 5.81421C19.9901 5.62927 20.0486 5.40404 19.9601 5.16716C19.9078 5.02719 15.0234 0.134341 14.8573 0.0555251C14.7129 -0.0130135 14.5049 -0.018914 14.3938 0.0423566ZM17.4127 5.43815L16.5043 5.74126L15.3808 4.61768L14.2573 3.49414L14.5595 2.58536L14.8619 1.67658L16.5914 3.40583L18.321 5.13508L17.4127 5.43815ZM13.8586 9.0739L12.1391 11.6528L10.2494 9.76339C9.21009 8.72425 8.36852 7.86447 8.37927 7.85279C8.38998 7.8411 9.54544 7.06483 10.9469 6.12776L13.4951 4.42398L14.5366 5.45949L15.5782 6.49499L13.8586 9.0739ZM5.83627 7.34977C6.26075 7.45715 6.30295 7.49571 9.43626 10.6364C12.1976 13.4042 12.455 13.6732 12.5485 13.8882C12.6901 14.2141 12.7412 14.5676 12.6926 14.884C12.6504 15.1587 12.4354 15.6443 12.3029 15.7642C12.2214 15.838 12.2133 15.8301 8.19061 11.8074C4.16794 7.7848 4.16008 7.77663 4.23382 7.69516C4.34518 7.57211 4.8312 7.34797 5.07429 7.30757C5.30265 7.26958 5.58005 7.28498 5.83627 7.34977Z"/>
</svg>