<svg width="20" height="20" fill="none" xmlns="http://www.w3.org/2000/svg"><path d="M7.85.534a2.047 2.047 0 0 0-1.62 1.364c-.049.154-.075.348-.088.659l-.018.44-2.554.01c-2.772.01-2.655.002-2.861.201-.134.129-.184.276-.184.542s.05.413.184.542c.174.168.253.183 1.023.205l.716.02.555 6.638c.306 3.651.575 6.719.598 6.817.061.258.149.446.316.68.245.344.577.587 1.007.74l.259.091h9.634l.259-.091c.676-.24 1.178-.777 1.328-1.422.02-.084.286-3.146.592-6.803l.555-6.65.716-.02c.771-.022.85-.037 1.024-.205.134-.129.184-.276.184-.542s-.05-.413-.184-.542c-.206-.199-.089-.191-2.861-.201l-2.554-.01-.018-.44c-.022-.517-.091-.776-.288-1.081A2.04 2.04 0 0 0 12.483.61l-.266-.093-2.084-.005C8.988.509 7.96.519 7.85.534m4.289 1.524c.18.107.241.253.256.616l.013.326H7.592l.013-.327c.015-.36.068-.49.249-.609C7.946 2.003 8.039 2 9.995 2c1.888 0 2.052.004 2.144.058m3.926 2.5c0 .032-.245 2.991-.544 6.575-.433 5.195-.554 6.538-.598 6.622a.538.538 0 0 1-.168.175l-.113.07H5.358l-.113-.07a.531.531 0 0 1-.167-.174c-.043-.082-.169-1.481-.598-6.622-.3-3.584-.545-6.544-.546-6.576-.001-.055.31-.058 6.066-.058s6.067.003 6.065.058M7.783 7.45a.567.567 0 0 0-.347.373c-.051.181-.049 6.678.001 6.859a.598.598 0 0 0 .381.381c.202.056.513.044.667-.026.151-.068.302-.231.34-.365.033-.116.033-6.728 0-6.844-.038-.134-.189-.297-.34-.365-.164-.075-.51-.081-.702-.013m3.732.011c-.152.071-.303.234-.34.367-.033.117-.032 6.729 0 6.846.04.142.213.316.376.378.11.042.213.053.395.041.288-.018.443-.098.561-.286l.076-.124V7.817l-.076-.124c-.123-.197-.274-.27-.588-.284-.212-.009-.297.002-.404.052" fill-rule="evenodd" fill="#000"/></svg>