<svg viewBox="0 0 20 20" xmlns="http://www.w3.org/2000/svg">
<path fill-rule="evenodd" clip-rule="evenodd" d="M0.75 2.99988C0.75 1.75724 1.75736 0.749878 3 0.749878H13.0335C14.2762 0.749878 15.2835 1.75724 15.2835 2.99988V11.1334V13.0334C15.2835 14.2761 14.2762 15.2834 13.0335 15.2834H3C1.75736 15.2834 0.75 14.2761 0.75 13.0334V11.1334V2.99988ZM13.7835 2.99988V10.3834H2.25V2.99988C2.25 2.58566 2.58579 2.24988 3 2.24988H13.0335C13.4478 2.24988 13.7835 2.58566 13.7835 2.99988ZM13.7835 11.8834H2.25V13.0334C2.25 13.4476 2.58579 13.7834 3 13.7834H13.0335C13.4478 13.7834 13.7835 13.4476 13.7835 13.0334V11.8834ZM17.0946 4.01816C16.6877 3.94061 16.295 4.20759 16.2174 4.61448C16.1399 5.02136 16.4069 5.41408 16.8137 5.49164L17.1027 5.54671C17.5341 5.62942 17.817 6.04604 17.7346 6.47755L15.7067 17.1037C15.624 17.535 15.2074 17.8179 14.7759 17.7355L6.8243 16.2183C6.41742 16.1407 6.02465 16.4076 5.94702 16.8145C5.86939 17.2214 6.13629 17.6141 6.54317 17.6918L14.4948 19.2089C15.7397 19.4465 16.9418 18.6298 17.1801 17.385L19.208 6.75871C19.4456 5.51374 18.6288 4.31165 17.384 4.07332L17.0946 4.01816Z"/>
</svg>
