<svg viewBox="0 0 20 20" xmlns="http://www.w3.org/2000/svg">
<path fill-rule="evenodd" clip-rule="evenodd" d="M10.0995 2.25C7.97023 2.25 6.24414 3.97609 6.24414 6.10533C6.24414 8.23457 7.97023 9.96067 10.0995 9.96067C12.2287 9.96067 13.9548 8.23457 13.9548 6.10533C13.9548 3.97609 12.2287 2.25 10.0995 2.25ZM7.74414 6.10533C7.74414 4.80452 8.79866 3.75 10.0995 3.75C11.4003 3.75 12.4548 4.80452 12.4548 6.10533C12.4548 7.40615 11.4003 8.46067 10.0995 8.46067C8.79866 8.46067 7.74414 7.40615 7.74414 6.10533ZM10.1 11.86C7.89644 11.86 6.07557 13.4984 5.78919 15.6235H14.4108C14.1244 13.4984 12.3036 11.86 10.1 11.86ZM4.25 16.21C4.25 16.3871 4.3114 16.5499 4.41408 16.6782C4.53087 16.9406 4.79388 17.1235 5.09961 17.1235H15.0996C15.4045 17.1235 15.6669 16.9416 15.7842 16.6804C15.8879 16.5518 15.95 16.3881 15.95 16.21C15.95 12.9791 13.3309 10.36 10.1 10.36C6.86913 10.36 4.25 12.9791 4.25 16.21Z"/>
</svg>
