<svg width="6" height="23" viewBox="0 0 6 23" fill="none" xmlns="http://www.w3.org/2000/svg">
<path fill-rule="evenodd" clip-rule="evenodd" d="M2.9873 22.753C4.43705 22.753 5.6123 21.5778 5.6123 20.128C5.6123 18.6783 4.43705 17.503 2.9873 17.503C1.53756 17.503 0.362305 18.6783 0.362305 20.128C0.362305 21.5778 1.53756 22.753 2.9873 22.753Z" fill="#7A8692"/>
<path fill-rule="evenodd" clip-rule="evenodd" d="M2.9873 5.50301C4.43705 5.50301 5.6123 4.32775 5.6123 2.87801C5.6123 1.42826 4.43705 0.253006 2.9873 0.253006C1.53756 0.253006 0.362305 1.42826 0.362305 2.87801C0.362305 4.32775 1.53756 5.50301 2.9873 5.50301Z" fill="#7A8692"/>
<path fill-rule="evenodd" clip-rule="evenodd" d="M2.9873 14.128C4.43705 14.128 5.6123 12.9528 5.6123 11.503C5.6123 10.0533 4.43705 8.87801 2.9873 8.87801C1.53756 8.87801 0.362305 10.0533 0.362305 11.503C0.362305 12.9528 1.53756 14.128 2.9873 14.128Z" fill="#7A8692"/>
</svg>
