<svg width="20" height="20" viewBox="0 0 20 20" fill="none" xmlns="http://www.w3.org/2000/svg">
<path fill-rule="evenodd" clip-rule="evenodd" d="M17.2881 1.88342H2.72022L2.71791 1.88343C1.63245 1.88677 0.753345 2.76588 0.75 3.85133V6.03345V16.2334C0.75 17.2736 1.5932 18.1168 2.63333 18.1168H17.2798L17.2821 18.1168C18.3675 18.1134 19.2467 17.2343 19.25 16.1488L19.25 16.1465V6.03345L19.25 3.8476L19.25 3.84528C19.2466 2.76317 18.3703 1.88678 17.2881 1.88342ZM17.75 5.28345V3.84899C17.7487 3.5924 17.541 3.38469 17.2844 3.38342H2.72164C2.46171 3.3847 2.25128 3.59513 2.25 3.85506V5.28345H17.75ZM2.25 6.78345H17.75V16.1452C17.7487 16.4051 17.5383 16.6155 17.2784 16.6168H2.63333C2.42162 16.6168 2.25 16.4451 2.25 16.2334V6.78345ZM9.81641 11.7001C9.81641 11.2859 10.1522 10.9501 10.5664 10.9501H13.9664C14.3806 10.9501 14.7164 11.2859 14.7164 11.7001C14.7164 12.1143 14.3806 12.4501 13.9664 12.4501H10.5664C10.1522 12.4501 9.81641 12.1143 9.81641 11.7001ZM6.56353 8.90314C6.27064 8.61025 5.79577 8.61025 5.50287 8.90314C5.20998 9.19603 5.20998 9.67091 5.50287 9.9638L7.23921 11.7001L5.50287 13.4365C5.20998 13.7294 5.20998 14.2042 5.50287 14.4971C5.79577 14.79 6.27064 14.79 6.56353 14.4971L8.8302 12.2305C9.12309 11.9376 9.12309 11.4627 8.8302 11.1698L6.56353 8.90314Z" fill="white"/>
</svg>
