<svg width="22" height="20" viewBox="0 0 22 20" xmlns="http://www.w3.org/2000/svg">
<path fill-rule="evenodd" clip-rule="evenodd" d="M7.74917 2.08301C7.74917 1.32362 8.36478 0.708008 9.12417 0.708008H12.8742C13.6336 0.708008 14.2492 1.32362 14.2492 2.08301V6.95801H16.6242C16.9275 6.95801 17.201 7.14074 17.3171 7.421C17.4332 7.70125 17.369 8.02384 17.1545 8.23834L11.5295 13.8633C11.3888 14.004 11.1981 14.083 10.9991 14.083C10.8002 14.083 10.6094 14.004 10.4688 13.8633L4.84463 8.2383C4.63016 8.02379 4.56601 7.70121 4.6821 7.42097C4.79819 7.14073 5.07166 6.95801 5.375 6.95801H7.74917V2.08301ZM9.24917 2.20801V7.70801C9.24917 8.12222 8.91338 8.45801 8.49917 8.45801H7.18547L10.9992 12.2723L14.8135 8.45801H13.4992C13.085 8.45801 12.7492 8.12222 12.7492 7.70801V2.20801H9.24917ZM1.625 13.833C2.03921 13.833 2.375 14.1688 2.375 14.583V17.083C2.375 17.3591 2.59886 17.583 2.875 17.583H19.125C19.4011 17.583 19.625 17.3591 19.625 17.083V14.583C19.625 14.1688 19.9608 13.833 20.375 13.833C20.7892 13.833 21.125 14.1688 21.125 14.583V17.083C21.125 18.1876 20.2296 19.083 19.125 19.083H2.875C1.77043 19.083 0.875 18.1876 0.875 17.083V14.583C0.875 14.1688 1.21079 13.833 1.625 13.833Z"/>
</svg>
