<svg viewBox="0 0 20 20" fill="none" xmlns="http://www.w3.org/2000/svg">
<path d="M0.25,3.7c0-1.243,1.007-2.25,2.25-2.25h15c1.243,0,2.25,1.007,2.25,2.25v13.8c0,1.243-1.007,2.25-2.25,2.25
	h-15c-1.243,0-2.25-1.007-2.25-2.25V3.7z M2.5,2.95c-0.414,0-0.75,0.336-0.75,0.75v13.8c0,0.414,0.336,0.75,0.75,0.75h15
	c0.414,0,0.75-0.336,0.75-0.75V3.7c0-0.414-0.336-0.75-0.75-0.75H2.5z M4.6,0.25c0.414,0,0.75,0.336,0.75,0.75v2.4
	c0,0.414-0.336,0.75-0.75,0.75c-0.414,0-0.75-0.336-0.75-0.75V1C3.85,0.586,4.185,0.25,4.6,0.25z M15.4,0.25
	c0.414,0,0.75,0.336,0.75,0.75v2.4c0,0.414-0.336,0.75-0.75,0.75s-0.75-0.336-0.75-0.75V1C14.65,0.586,14.986,0.25,15.4,0.25z
	 M9.85,14.8c0-0.414,0.336-0.75,0.75-0.75h3.6c0.414,0,0.75,0.336,0.75,0.75c0,0.414-0.336,0.75-0.75,0.75h-3.6
	C10.185,15.55,9.85,15.214,9.85,14.8z M9.85,8.8c0-0.414,0.336-0.75,0.75-0.75h3.6c0.414,0,0.75,0.336,0.75,0.75
	c0,0.414-0.336,0.75-0.75,0.75h-3.6C10.185,9.55,9.85,9.214,9.85,8.8z M8.77,12.04c0.331,0.248,0.399,0.719,0.15,1.05L6.4,16.45
	c-0.13,0.174-0.33,0.283-0.547,0.298c-0.217,0.015-0.43-0.064-0.583-0.218l-1.8-1.8c-0.293-0.293-0.293-0.768,0-1.061
	c0.293-0.293,0.768-0.293,1.061,0l1.189,1.189L7.72,12.19C7.969,11.859,8.439,11.792,8.77,12.04z M8.77,5.8
	c0.331,0.249,0.399,0.719,0.15,1.05L6.4,10.21c-0.13,0.174-0.33,0.283-0.547,0.298c-0.217,0.015-0.43-0.064-0.583-0.218l-1.8-1.8
	c-0.293-0.293-0.293-0.768,0-1.061c0.293-0.293,0.768-0.293,1.061,0l1.189,1.189L7.72,5.95C7.969,5.619,8.439,5.552,8.77,5.8z"/>
</svg>
