<svg viewBox="0 0 20 16" xmlns="http://www.w3.org/2000/svg">
<path fill-rule="evenodd" clip-rule="evenodd" d="M2.34961 4.08833C2.34961 1.85158 4.16286 0.0383301 6.39961 0.0383301C8.63637 0.0383301 10.4496 1.85158 10.4496 4.08833C10.4496 6.32509 8.63637 8.13833 6.39961 8.13833C4.16286 8.13833 2.34961 6.32509 2.34961 4.08833ZM6.39961 1.53833C4.99128 1.53833 3.84961 2.68001 3.84961 4.08833C3.84961 5.49666 4.99128 6.63833 6.39961 6.63833C7.80794 6.63833 8.94961 5.49666 8.94961 4.08833C8.94961 2.68001 7.80794 1.53833 6.39961 1.53833ZM14.5828 1.98022C12.6774 1.98022 11.1328 3.52484 11.1328 5.43022C11.1328 7.33561 12.6774 8.88023 14.5828 8.88023C16.4882 8.88023 18.0328 7.33561 18.0328 5.43022C18.0328 3.52484 16.4882 1.98022 14.5828 1.98022ZM12.6328 5.43022C12.6328 4.35327 13.5059 3.48022 14.5828 3.48022C15.6598 3.48022 16.5328 4.35327 16.5328 5.43022C16.5328 6.50718 15.6598 7.38023 14.5828 7.38023C13.5059 7.38023 12.6328 6.50718 12.6328 5.43022ZM13.3104 11.5354C14.4362 11.1204 15.6939 11.2819 16.6784 11.9679C17.5201 12.5544 18.0713 13.4611 18.2139 14.4617L14.1836 14.4617C13.7694 14.4617 13.4336 14.7975 13.4336 15.2117C13.4336 15.6259 13.7694 15.9617 14.1836 15.9617L19.0014 15.9617C19.4156 15.9617 19.7514 15.6259 19.7514 15.2117C19.7514 15.1709 19.7481 15.131 19.7419 15.092C19.7476 15.0545 19.7506 15.016 19.7506 14.9768C19.7497 13.2866 18.9227 11.7035 17.5359 10.7372C16.1491 9.77089 14.3776 9.54338 12.7916 10.1279C12.403 10.2711 12.204 10.7023 12.3473 11.091C12.4905 11.4797 12.9217 11.6786 13.3104 11.5354ZM1.77825 14.4618C2.03472 12.1362 4.00611 10.3273 6.4 10.3273C8.79389 10.3273 10.7653 12.1362 11.0218 14.4618H1.77825ZM0.259113 15.0945C0.253114 15.0563 0.25 15.0172 0.25 14.9773C0.25 11.5807 3.00345 8.82727 6.4 8.82727C9.79655 8.82727 12.55 11.5807 12.55 14.9773C12.55 15.0171 12.5469 15.0563 12.5409 15.0945C12.5469 15.1327 12.55 15.1719 12.55 15.2118C12.55 15.626 12.2142 15.9618 11.8 15.9618H1C0.585786 15.9618 0.25 15.626 0.25 15.2118C0.25 15.1719 0.253114 15.1327 0.259113 15.0945Z"/>
</svg>
