<svg viewBox="0 0 20 20" xmlns="http://www.w3.org/2000/svg">
<path fill-rule="evenodd" clip-rule="evenodd" d="M10.5695 0.071386C10.3673 -0.0237953 10.1331 -0.0237953 9.93083 0.071386L1.4409 4.06665C1.40873 4.0812 1.37738 4.09813 1.34712 4.1174C1.34341 4.11976 1.33972 4.12215 1.33606 4.12457C1.12646 4.26328 1 4.49807 1 4.75V4.75047C1 4.75049 1 4.75051 1 4.75054V14.55C1 14.8414 1.16878 15.1064 1.43284 15.2296L10.4298 19.4282C10.6413 19.5281 10.889 19.5241 11.0986 19.414L19.0986 15.214C19.3454 15.0845 19.5 14.8287 19.5 14.55V4.77349C19.5089 4.48377 19.3485 4.20267 19.0695 4.07139L10.5695 0.071386ZM17.0667 4.78666L10.2502 1.5789L3.51753 4.7472L10.7304 8.11321L17.0667 4.78666ZM11.5 17.5092V9.40333L18 5.99083V14.0967L11.5 17.5092ZM2.5 5.92765L10 9.42765V17.5724L2.5 14.0724V5.92765Z"/>
</svg>
