<svg viewBox="0 0 20 20" xmlns="http://www.w3.org/2000/svg">
<path fill-rule="evenodd" clip-rule="evenodd" d="M9.16602 15.8333C8.70602 15.8333 8.33268 15.46 8.33268 15C8.33268 14.54 8.70602 14.1667 9.16602 14.1667C9.62602 14.1667 9.99935 14.54 9.99935 15C9.99935 15.46 9.62602 15.8333 9.16602 15.8333ZM17.4993 14.1667H11.5118C11.1668 13.1992 10.251 12.5 9.16602 12.5C8.08102 12.5 7.16518 13.1992 6.82018 14.1667H2.49935C2.03852 14.1667 1.66602 14.5392 1.66602 15C1.66602 15.4608 2.03852 15.8333 2.49935 15.8333H6.82018C7.16518 16.8008 8.08102 17.5 9.16602 17.5C10.251 17.5 11.1668 16.8008 11.5118 15.8333H17.4993C17.9602 15.8333 18.3327 15.4608 18.3327 15C18.3327 14.5392 17.9602 14.1667 17.4993 14.1667ZM15.8327 10.8333C15.3727 10.8333 14.9993 10.46 14.9993 10C14.9993 9.54 15.3727 9.16667 15.8327 9.16667C16.2927 9.16667 16.666 9.54 16.666 10C16.666 10.46 16.2927 10.8333 15.8327 10.8333ZM15.8327 7.5C14.7477 7.5 13.8318 8.19917 13.4868 9.16667H2.49935C2.03852 9.16667 1.66602 9.53917 1.66602 10C1.66602 10.4608 2.03852 10.8333 2.49935 10.8333H13.4868C13.8318 11.8008 14.7477 12.5 15.8327 12.5C17.211 12.5 18.3327 11.3783 18.3327 10C18.3327 8.62167 17.211 7.5 15.8327 7.5ZM5.83268 4.16667C6.29268 4.16667 6.66602 4.54 6.66602 5C6.66602 5.46 6.29268 5.83333 5.83268 5.83333C5.37268 5.83333 4.99935 5.46 4.99935 5C4.99935 4.54 5.37268 4.16667 5.83268 4.16667ZM2.49935 5.83333H3.48685C3.83185 6.80083 4.74768 7.5 5.83268 7.5C6.91768 7.5 7.83352 6.80083 8.17852 5.83333H17.4993C17.9602 5.83333 18.3327 5.46083 18.3327 5C18.3327 4.53917 17.9602 4.16667 17.4993 4.16667H8.17852C7.83352 3.19917 6.91768 2.5 5.83268 2.5C4.74768 2.5 3.83185 3.19917 3.48685 4.16667H2.49935C2.03852 4.16667 1.66602 4.53917 1.66602 5C1.66602 5.46083 2.03852 5.83333 2.49935 5.83333Z"/>
</svg>
