<svg viewBox="0 0 20 20" xmlns="http://www.w3.org/2000/svg">
<path fill-rule="evenodd" clip-rule="evenodd" d="M4.95 0C3.87304 0 3 0.873045 3 1.95V3.8436C3 5.26807 3.44125 6.58949 4.19451 7.67862C4.24364 7.85859 4.35944 8.01981 4.52944 8.12272C5.11082 8.83119 5.83359 9.41919 6.65463 9.84361C4.48384 10.9658 3 13.2314 3 15.8436V17.7372C3 18.8142 3.87304 19.6872 4.95 19.6872H14.55C15.627 19.6872 16.5 18.8142 16.5 17.7372V15.8436C16.5 13.2314 15.0162 10.9658 12.8454 9.84361C13.6658 9.41949 14.3882 8.83202 14.9693 8.12423C15.111 8.03916 15.2215 7.90903 15.2822 7.75309C15.2921 7.72762 15.3005 7.70176 15.3076 7.67563C16.0596 6.58707 16.5 5.26677 16.5 3.8436V1.95C16.5 0.873045 15.627 0 14.55 0H4.95ZM14.5686 5.93115C14.8461 5.29135 15 4.58544 15 3.8436V1.95C15 1.70147 14.7985 1.5 14.55 1.5H4.95C4.70147 1.5 4.5 1.70147 4.5 1.95V3.8436C4.5 4.58589 4.65405 5.29219 4.93192 5.93229C5.35327 5.29932 5.85528 4.71293 6.42311 4.22623C7.34618 3.43502 8.48404 2.875 9.75063 2.875C11.0172 2.875 12.1551 3.43502 13.0782 4.22623C13.6456 4.71264 14.1474 5.29862 14.5686 5.93115ZM4.5 15.8436C4.5 12.9441 6.85051 10.5936 9.75 10.5936C12.6495 10.5936 15 12.9441 15 15.8436V17.7372C15 17.9858 14.7985 18.1872 14.55 18.1872H4.95C4.70147 18.1872 4.5 17.9858 4.5 17.7372V15.8436Z"/>
</svg>
