<svg width="21" height="20" fill="none" xmlns="http://www.w3.org/2000/svg"><path d="M1.476 1.034a1.884 1.884 0 0 0-.836.553c-.248.266-.44.631-.497.948-.026.14-.038 1.489-.038 4.151 0 3.819.002 3.951.069 4.214.16.623.629 1.141 1.248 1.377.232.089.271.092 1.136.105.983.015 1.116-.002 1.304-.167.253-.222.27-.831.03-1.096-.151-.168-.223-.18-1.133-.199-.804-.016-.871-.023-.963-.09a.656.656 0 0 1-.16-.192c-.057-.113-.061-.375-.061-3.981 0-4.236-.014-3.961.211-4.15l.109-.092h5.792c6.381 0 5.906-.017 6.074.218l.082.115.017 1.487c.017 1.42.021 1.493.089 1.61.113.192.327.292.629.292.323 0 .519-.099.647-.327l.088-.157V4.13c0-1.475-.003-1.53-.078-1.767-.21-.664-.756-1.198-1.394-1.364-.181-.048-.924-.054-6.157-.053L1.733.947l-.257.087M6.86 7.229a2.268 2.268 0 0 0-1.085.607c-.317.314-.497.617-.595 1.002-.068.265-.07.39-.07 4.041 0 2.521.012 3.837.037 3.976.021.114.099.334.173.488a2.274 2.274 0 0 0 1.47 1.231c.216.06.513.064 5.915.064 5.328 0 5.702-.004 5.915-.062a2.305 2.305 0 0 0 1.467-1.205c.219-.441.212-.288.212-4.459.001-3.671-.001-3.81-.068-4.071a2.034 2.034 0 0 0-.515-.93 2.121 2.121 0 0 0-.919-.611l-.299-.107-5.705-.007c-4.786-.005-5.742.002-5.933.043m11.456 1.454a.81.81 0 0 1 .269.159c.263.237.248-.019.237 4.128l-.009 3.713-.088.129a1.043 1.043 0 0 1-.225.225l-.137.096H7.047l-.129-.088a1.032 1.032 0 0 1-.225-.227l-.095-.14-.01-3.71c-.011-4.164-.027-3.896.247-4.131a.905.905 0 0 1 .251-.155c.159-.046 11.063-.046 11.23.001" fill-rule="evenodd" fill="#000"/></svg>