<svg viewBox="0 0 20 20" xmlns="http://www.w3.org/2000/svg">
<path fill-rule="evenodd" clip-rule="evenodd" d="M6.30088 19.0674C6.50088 19.1674 6.80088 19.2674 7.10088 19.2674C7.70088 19.2674 8.30088 19.0674 8.70088 18.4674L9.40088 17.6674C9.70088 17.3674 10.2009 17.3674 10.5009 17.6674L11.2009 18.4674C11.8009 19.1674 12.8009 19.4674 13.7009 19.0674C14.6009 18.6674 15.1009 17.7674 15.1009 16.8674L15.0009 15.7674C15.0009 15.4674 15.0009 15.2674 15.2009 15.1674C15.4009 15.0674 15.6009 14.9674 15.8009 14.9674L16.9009 15.0674C17.9009 15.0674 18.7009 14.5674 19.1009 13.6674C19.4009 12.7674 19.2009 11.7674 18.5009 11.1674L17.7009 10.4674C17.6009 10.3674 17.5009 10.1674 17.5009 9.96742C17.5009 9.76742 17.5009 9.56742 17.7009 9.46742L18.5009 8.76742C19.2009 8.16742 19.5009 7.16742 19.1009 6.26742C18.7009 5.36742 17.9009 4.76742 16.9009 4.86742L15.8009 4.96742C15.6009 4.96742 15.3009 4.86742 15.2009 4.76742C15.1009 4.56742 15.0009 4.36742 15.0009 4.16742L15.1009 3.06742C15.1009 2.06742 14.6009 1.26742 13.7009 0.867422C12.8009 0.567422 11.8009 0.767422 11.2009 1.46742L10.5009 2.36742C10.2009 2.66742 9.70088 2.66742 9.40088 2.36742L8.70088 1.56742C8.10088 0.867422 7.10088 0.567422 6.20088 0.967422C5.30088 1.36742 4.80088 2.26742 4.80088 3.16742L5.00088 4.16742C5.00088 4.46742 4.90088 4.66742 4.80088 4.76742C4.60088 4.86742 4.40088 4.96742 4.20088 4.96742L3.10088 4.86742C2.10088 4.86742 1.30088 5.36742 0.900882 6.26742C0.500882 7.16742 0.800882 8.16742 1.40088 8.76742L2.20088 9.46742C2.40088 9.66742 2.50088 9.76742 2.50088 9.96742C2.50088 10.1674 2.50088 10.3674 2.30088 10.4674L1.50088 11.1674C0.800882 11.7674 0.500882 12.7674 0.900882 13.6674C1.30088 14.5674 2.20088 15.1674 3.10088 15.0674L4.20088 14.9674C4.50088 14.9674 4.70088 14.9674 4.80088 15.1674C4.90088 15.3674 5.00088 15.5674 5.00088 15.7674L4.90088 16.8674C4.90088 17.8674 5.40088 18.6674 6.30088 19.0674ZM5.80088 14.3674C5.40088 13.8674 4.80088 13.6674 4.20088 13.6674H4.10088L3.00088 13.7674C2.70088 13.7674 2.40088 13.5674 2.30088 13.2674C2.20088 12.9674 2.30088 12.6674 2.50088 12.4674L3.30088 11.7674C3.70088 11.2674 4.00088 10.6674 4.00088 10.0674C4.00088 9.36742 3.80088 8.76742 3.30088 8.36742L2.50088 7.66742C2.20088 7.46742 2.20088 7.16742 2.30088 6.76742C2.40088 6.56742 2.70088 6.36742 3.00088 6.36742L4.00088 6.46742C4.70088 6.46742 5.30088 6.26742 5.80088 5.86742C6.20088 5.36742 6.40088 4.76742 6.40088 4.16742L6.30088 3.06742C6.30088 2.76742 6.50088 2.46742 6.80088 2.36742C7.10088 2.26742 7.40088 2.26742 7.60088 2.56742L8.30088 3.26742C9.10088 4.16742 10.8009 4.16742 11.6009 3.26742L12.3009 2.56742C12.5009 2.36742 12.8009 2.26742 13.1009 2.36742C13.4009 2.46742 13.6009 2.76742 13.6009 3.06742V4.06742C13.5009 4.66742 13.8009 5.36742 14.2009 5.76742C14.7009 6.26742 15.3009 6.46742 15.9009 6.46742L17.1009 6.36742C17.4009 6.36742 17.7009 6.56742 17.8009 6.86742C17.9009 7.16742 17.8009 7.46742 17.6009 7.66742L16.8009 8.36742C16.4009 8.86742 16.1009 9.46742 16.1009 10.0674C16.1009 10.7674 16.3009 11.3674 16.8009 11.7674L17.6009 12.4674C17.8009 12.6674 17.9009 12.9674 17.8009 13.2674C17.7009 13.5674 17.4009 13.7674 17.1009 13.7674L16.0009 13.6674C15.4009 13.5674 14.7009 13.8674 14.3009 14.2674C13.8009 14.7674 13.6009 15.3674 13.6009 15.9674L13.7009 17.1674C13.7009 17.4674 13.5009 17.7674 13.2009 17.8674C12.9009 17.9674 12.6009 17.8674 12.4009 17.6674L11.7009 16.8674C10.9009 15.9674 9.20088 15.9674 8.40088 16.8674L7.70088 17.6674C7.50088 17.8674 7.20088 17.9674 6.90088 17.8674C6.60088 17.7674 6.40088 17.4674 6.40088 17.1674L6.50088 16.0674C6.50088 15.4674 6.20088 14.7674 5.80088 14.3674ZM5.80078 9.96758C5.80078 12.2676 7.70078 14.1676 10.0008 14.1676C12.3008 14.1676 14.2008 12.2676 14.2008 9.96758C14.2008 7.66758 12.3008 5.76758 10.0008 5.76758C7.70078 5.76758 5.80078 7.66758 5.80078 9.96758ZM7.30078 10.0676C7.30078 8.56758 8.50078 7.36758 10.0008 7.36758C11.4008 7.36758 12.6008 8.66758 12.6008 10.0676C12.6008 11.4676 11.5008 12.7676 10.0008 12.7676C8.50078 12.7676 7.30078 11.5676 7.30078 10.0676Z"/>
</svg>
