<svg viewBox="0 0 19 19" xmlns="http://www.w3.org/2000/svg">
<path  d="M0.25,9.5c0-5.109,4.141-9.25,9.25-9.25c5.109,0,9.25,4.141,9.25,9.25c0,5.109-4.141,9.25-9.25,9.25
	C4.391,18.75,0.25,14.609,0.25,9.5z M9.5,1.75c-4.28,0-7.75,3.47-7.75,7.75c0,4.28,3.47,7.75,7.75,7.75c4.28,0,7.75-3.47,7.75-7.75
	C17.25,5.22,13.78,1.75,9.5,1.75z M7.535,9.5c0-1.085,0.879-1.964,1.964-1.964c1.085,0,1.964,0.879,1.964,1.964
	c0,1.085-0.879,1.964-1.964,1.964C8.415,11.464,7.535,10.585,7.535,9.5z M9.499,9.036c-0.256,0-0.464,0.208-0.464,0.464
	c0,0.256,0.208,0.464,0.464,0.464S9.964,9.756,9.964,9.5C9.964,9.244,9.756,9.036,9.499,9.036z M9.5,3.286
	c0.414,0,0.75,0.336,0.75,0.75v4.25c0,0.414-0.336,0.75-0.751,0.75c-0.414,0-0.749-0.336-0.749-0.75v-4.25
	C8.75,3.622,9.086,3.286,9.5,3.286z M9.829,9.829c0.293-0.293,0.768-0.293,1.061,0l2.177,2.177c0.293,0.293,0.293,0.768,0,1.061
	s-0.768,0.293-1.061,0l-2.177-2.177C9.536,10.596,9.536,10.122,9.829,9.829z"/>
</svg>