<svg width="19" height="14" viewBox="0 0 19 14" fill="none" xmlns="http://www.w3.org/2000/svg">
<path d="M0.25,2.5c0-1.243,1.007-2.25,2.25-2.25h14c1.243,0,2.25,1.007,2.25,2.25v8.333
	c0,1.243-1.007,2.25-2.25,2.25h-14c-1.243,0-2.25-1.007-2.25-2.25V2.5z M2.5,1.75c-0.414,0-0.75,0.336-0.75,0.75v8.333
	c0,0.414,0.336,0.75,0.75,0.75h14c0.414,0,0.75-0.336,0.75-0.75V2.5c0-0.414-0.336-0.75-0.75-0.75H2.5z M3.084,7.8
	c0-0.414,0.336-0.75,0.75-0.75h2.833c0.414,0,0.75,0.336,0.75,0.75c0,0.414-0.336,0.75-0.75,0.75H3.834
	C3.42,8.55,3.084,8.214,3.084,7.8z M3.084,10.067c0-0.414,0.336-0.75,0.75-0.75h6.233c0.414,0,0.75,0.336,0.75,0.75
	c0,0.414-0.336,0.75-0.75,0.75H3.834C3.42,10.817,3.084,10.481,3.084,10.067z M11.584,4.017c0-0.828,0.672-1.5,1.5-1.5h1.9
	c0.828,0,1.5,0.672,1.5,1.5v1.9c0,0.828-0.672,1.5-1.5,1.5h-1.9c-0.828,0-1.5-0.672-1.5-1.5V4.017z M14.984,4.017h-1.9v1.9h1.9
	V4.017z"/>
</svg>