<svg viewBox="0 0 20 20" fill="none" xmlns="http://www.w3.org/2000/svg">
<path fill-rule="evenodd" clip-rule="evenodd" d="M2.63333 2.25C2.42162 2.25 2.25 2.42162 2.25 2.63333V13.9667C2.25 14.1784 2.42162 14.35 2.63333 14.35H4.9C5.31421 14.35 5.65 14.6858 5.65 15.1V17L8.98333 14.5C9.11316 14.4026 9.27106 14.35 9.43333 14.35H17.3667C17.5784 14.35 17.75 14.1784 17.75 13.9667V2.63333C17.75 2.42162 17.5784 2.25 17.3667 2.25H2.63333ZM0.75 2.63333C0.75 1.5932 1.5932 0.75 2.63333 0.75H17.3667C18.4068 0.75 19.25 1.5932 19.25 2.63333V13.9667C19.25 15.0068 18.4068 15.85 17.3667 15.85H9.68333L5.35 19.1C5.12274 19.2704 4.81868 19.2979 4.56459 19.1708C4.3105 19.0438 4.15 18.7841 4.15 18.5V15.85H2.63333C1.5932 15.85 0.75 15.0068 0.75 13.9667V2.63333ZM7.55078 6.8833C7.55078 6.46909 7.88657 6.1333 8.30078 6.1333H15.1008C15.515 6.1333 15.8508 6.46909 15.8508 6.8833C15.8508 7.29751 15.515 7.6333 15.1008 7.6333H8.30078C7.88657 7.6333 7.55078 7.29751 7.55078 6.8833ZM8.30078 9.53333C7.88657 9.53333 7.55078 9.86911 7.55078 10.2833C7.55078 10.6975 7.88657 11.0333 8.30078 11.0333H15.1008C15.515 11.0333 15.8508 10.6975 15.8508 10.2833C15.8508 9.86911 15.515 9.53333 15.1008 9.53333H8.30078ZM3.86719 6.88331C3.86719 6.31261 4.32983 5.84998 4.90052 5.84998C5.47122 5.84998 5.93385 6.31261 5.93385 6.88331C5.93385 7.454 5.47122 7.91664 4.90052 7.91664C4.32983 7.91664 3.86719 7.454 3.86719 6.88331ZM4.90052 9.25C4.32983 9.25 3.86719 9.71264 3.86719 10.2833C3.86719 10.854 4.32983 11.3167 4.90052 11.3167C5.47122 11.3167 5.93385 10.854 5.93385 10.2833C5.93385 9.71264 5.47122 9.25 4.90052 9.25Z"/>
</svg>
