<svg viewBox="0 0 20 20" xmlns="http://www.w3.org/2000/svg">
<path fill-rule="evenodd" clip-rule="evenodd" d="M17.4502 1.26255L18.2502 2.06255C19.0502 2.86255 19.0502 4.06255 18.2502 4.76255L15.4502 7.56255L10.6502 12.3625C10.6502 12.4625 10.4502 12.5625 10.3502 12.5625L7.15017 13.3625H6.95017C6.75017 13.3625 6.55017 13.3625 6.45017 13.1625C6.25017 12.9625 6.15017 12.7625 6.25017 12.4625L7.05017 9.26255C7.05017 9.16255 7.15016 9.06255 7.25016 8.96255L7.25017 8.96255L12.0502 4.06255L14.7502 1.26255C15.5502 0.562549 16.7502 0.562549 17.4502 1.26255ZM7.95017 11.5625L9.75017 11.1625L13.7502 6.96255L12.4502 5.66255L8.35017 9.76255L7.95017 11.5625ZM14.9502 5.96255L17.2502 3.66255C17.3502 3.56255 17.3502 3.36255 17.1502 3.16255L16.3502 2.36255C16.2502 2.26255 16.0502 2.26255 15.8502 2.36255L13.6502 4.66255L14.9502 5.96255ZM14.7504 11.7626C14.7504 11.2626 15.1504 10.9626 15.5504 10.9626C15.9504 10.9626 16.2504 11.2626 16.2504 11.6626V17.3626C16.2504 18.4626 15.3504 19.2626 14.3504 19.2626H3.05039C1.95039 19.2626 1.15039 18.3626 1.15039 17.3626V6.0626C1.15039 4.9626 2.05039 4.1626 3.05039 4.1626H8.75039C9.15039 4.1626 9.55039 4.3626 9.55039 4.8626C9.55039 5.3626 9.15039 5.6626 8.75039 5.6626H3.05039C2.85039 5.6626 2.65039 5.8626 2.65039 6.0626V17.3626C2.65039 17.5626 2.85039 17.7626 3.05039 17.7626H14.3504C14.5504 17.7626 14.7504 17.5626 14.7504 17.3626V11.7626Z"/>
</svg>
