<svg width="20" height="20" xmlns="http://www.w3.org/2000/svg"><path d="M2.683 3.658c-.6.038-1.208.348-1.567.799a2.12 2.12 0 0 0-.474 1.476c.027.595.221 1.028.65 1.457.193.193.306.273.55.39.395.188.597.235 1.008.231a2.116 2.116 0 0 0 1.502-.635c.254-.252.413-.508.536-.86.083-.237.094-.312.094-.683 0-.37-.011-.446-.094-.683a2.191 2.191 0 0 0-1.344-1.372 2.568 2.568 0 0 0-.861-.12m7.184 0A2.198 2.198 0 0 0 7.881 5.3a2.32 2.32 0 0 0-.057.533c0 .619.197 1.09.641 1.535.445.444.915.641 1.535.642.608.001 1.099-.203 1.536-.64.444-.444.645-.923.645-1.537 0-.623-.201-1.094-.661-1.55a1.82 1.82 0 0 0-.52-.39 2.255 2.255 0 0 0-1.133-.235m7.077.013c-.738.066-1.416.555-1.737 1.251a2.112 2.112 0 0 0 .024 1.861c.38.766 1.09 1.22 1.919 1.228.413.004.613-.042 1.014-.234a2.136 2.136 0 0 0 1.203-1.944 2.1 2.1 0 0 0-.634-1.533c-.481-.483-1.076-.693-1.789-.629M2.683 11.992a2.234 2.234 0 0 0-1.207.452 2.166 2.166 0 0 0-.842 1.706c.001.875.465 1.612 1.249 1.983.357.169.57.215.967.211a2.11 2.11 0 0 0 1.502-.634 2.13 2.13 0 0 0 .536-.86c.081-.233.093-.317.094-.667.001-.327-.013-.445-.076-.65a2.197 2.197 0 0 0-2.223-1.541m7.167-.001c-.921.055-1.729.729-1.969 1.642a2.322 2.322 0 0 0-.057.534c0 .618.197 1.09.641 1.534.445.445.917.642 1.535.642.607 0 1.088-.198 1.52-.626.46-.456.661-.927.661-1.55 0-.624-.201-1.095-.661-1.551a2.108 2.108 0 0 0-1.67-.625m7.094.012c-1.483.143-2.379 1.771-1.713 3.114.382.77 1.103 1.224 1.952 1.228.382.002.59-.048.981-.235a2.135 2.135 0 0 0 1.203-1.943c0-.598-.212-1.109-.637-1.538-.468-.473-1.094-.692-1.786-.626" fill-rule="evenodd"/></svg>