<svg viewBox="0 0 20 20" xmlns="http://www.w3.org/2000/svg">
<path fill-rule="evenodd" clip-rule="evenodd" d="M2.75 3.5C2.75 2.5335 3.5335 1.75 4.5 1.75H15.5C16.4665 1.75 17.25 2.5335 17.25 3.5V16.5C17.25 17.4665 16.4665 18.25 15.5 18.25H4.5C3.5335 18.25 2.75 17.4665 2.75 16.5V3.5ZM4.5 3.25C4.36193 3.25 4.25 3.36193 4.25 3.5V16.5C4.25 16.6381 4.36193 16.75 4.5 16.75H4.89916C5.92699 14.9013 7.87809 13.75 10.0002 13.75C12.1222 13.75 14.0733 14.9013 15.1011 16.75H15.5C15.6381 16.75 15.75 16.6381 15.75 16.5V3.5C15.75 3.36193 15.6381 3.25 15.5 3.25H4.5ZM13.2806 16.75C12.4673 15.8095 11.2752 15.25 10.0002 15.25C8.72506 15.25 7.53304 15.8095 6.71974 16.75H13.2806ZM6.50977 9.24C6.50977 7.31253 8.07229 5.75 9.99977 5.75C11.9272 5.75 13.4898 7.31253 13.4898 9.24C13.4898 11.1675 11.9272 12.73 9.99977 12.73C8.07229 12.73 6.50977 11.1675 6.50977 9.24ZM9.99977 7.25C8.90072 7.25 8.00977 8.14095 8.00977 9.24C8.00977 10.339 8.90072 11.23 9.99977 11.23C11.0988 11.23 11.9898 10.339 11.9898 9.24C11.9898 8.14095 11.0988 7.25 9.99977 7.25Z"/>
</svg>
